G04 Layer_Color=8388736*
%FSLAX44Y44*%
%MOMM*%
G71*
G01*
G75*
%ADD90C,0.0864*%
%ADD149C,0.0017*%
D90*
X1277403Y258614D02*
X1275604Y260413D01*
X1272007D01*
X1270208Y258614D01*
Y256815D01*
X1272007Y255017D01*
X1275604D01*
X1277403Y253218D01*
Y251420D01*
X1275604Y249621D01*
X1272007D01*
X1270208Y251420D01*
X1288194Y258614D02*
X1286396Y260413D01*
X1282798D01*
X1281000Y258614D01*
Y251420D01*
X1282798Y249621D01*
X1286396D01*
X1288194Y251420D01*
X1291791Y260413D02*
Y249621D01*
Y255017D01*
X1298986D01*
Y260413D01*
Y249621D01*
X1307979Y260413D02*
X1304381D01*
X1302583Y258614D01*
Y251420D01*
X1304381Y249621D01*
X1307979D01*
X1309777Y251420D01*
Y258614D01*
X1307979Y260413D01*
X1313374D02*
X1320569D01*
X1316971D01*
Y249621D01*
X1324166Y260413D02*
X1331360D01*
X1327763D01*
Y249621D01*
X1334957Y260413D02*
Y249621D01*
Y253218D01*
X1342152Y260413D01*
X1336756Y255017D01*
X1342152Y249621D01*
X1345749Y260413D02*
Y258614D01*
X1349346Y255017D01*
X1352943Y258614D01*
Y260413D01*
X1349346Y255017D02*
Y249621D01*
X1356540Y255017D02*
X1363735D01*
X1367332Y260413D02*
Y249621D01*
X1372728D01*
X1374526Y251420D01*
Y258614D01*
X1372728Y260413D01*
X1367332D01*
X1378123D02*
X1381721D01*
X1379922D01*
Y249621D01*
X1378123D01*
X1381721D01*
X1392512Y260413D02*
X1388915D01*
X1387116Y258614D01*
Y251420D01*
X1388915Y249621D01*
X1392512D01*
X1394311Y251420D01*
Y258614D01*
X1392512Y260413D01*
X1397908D02*
Y249621D01*
X1403304D01*
X1405102Y251420D01*
Y258614D01*
X1403304Y260413D01*
X1397908D01*
X1415894D02*
X1408699D01*
Y249621D01*
X1415894D01*
X1408699Y255017D02*
X1412297D01*
X1426685Y258614D02*
X1424887Y260413D01*
X1421290D01*
X1419491Y258614D01*
Y256815D01*
X1421290Y255017D01*
X1424887D01*
X1426685Y253218D01*
Y251420D01*
X1424887Y249621D01*
X1421290D01*
X1419491Y251420D01*
X1430282Y249621D02*
Y260413D01*
X1433880Y256815D01*
X1437477Y260413D01*
Y249621D01*
X1448268Y258614D02*
X1446470Y260413D01*
X1442873D01*
X1441074Y258614D01*
Y251420D01*
X1442873Y249621D01*
X1446470D01*
X1448268Y251420D01*
X729234Y1058267D02*
X731033Y1060066D01*
X734630D01*
X736428Y1058267D01*
Y1056468D01*
X734630Y1054670D01*
X732831D01*
X734630D01*
X736428Y1052871D01*
Y1051073D01*
X734630Y1049274D01*
X731033D01*
X729234Y1051073D01*
X740025Y1058267D02*
X741824Y1060066D01*
X745421D01*
X747220Y1058267D01*
Y1056468D01*
X745421Y1054670D01*
X743623D01*
X745421D01*
X747220Y1052871D01*
Y1051073D01*
X745421Y1049274D01*
X741824D01*
X740025Y1051073D01*
X750817Y1049274D02*
Y1060066D01*
X756213D01*
X758011Y1058267D01*
Y1054670D01*
X756213Y1052871D01*
X750817D01*
X754414D02*
X758011Y1049274D01*
X826667Y766908D02*
X824868Y765110D01*
Y761513D01*
X826667Y759714D01*
X828466D01*
X830264Y761513D01*
Y765110D01*
X832063Y766908D01*
X833861D01*
X835660Y765110D01*
Y761513D01*
X833861Y759714D01*
X824868Y770506D02*
Y774103D01*
Y772304D01*
X835660D01*
Y770506D01*
Y774103D01*
Y786693D02*
Y779498D01*
X828466Y786693D01*
X826667D01*
X824868Y784894D01*
Y781297D01*
X826667Y779498D01*
Y790290D02*
X824868Y792088D01*
Y795686D01*
X826667Y797484D01*
X828466D01*
X830264Y795686D01*
Y793887D01*
Y795686D01*
X832063Y797484D01*
X833861D01*
X835660Y795686D01*
Y792088D01*
X833861Y790290D01*
X824868Y808276D02*
Y801081D01*
X830264D01*
X828466Y804679D01*
Y806477D01*
X830264Y808276D01*
X833861D01*
X835660Y806477D01*
Y802880D01*
X833861Y801081D01*
X835660Y811873D02*
Y815470D01*
Y813672D01*
X824868D01*
X826667Y811873D01*
X612333Y1035661D02*
X614132Y1037459D01*
X617729D01*
X619527Y1035661D01*
Y1033862D01*
X617729Y1032064D01*
X615930D01*
X617729D01*
X619527Y1030265D01*
Y1028467D01*
X617729Y1026668D01*
X614132D01*
X612333Y1028467D01*
X623125Y1035661D02*
X624923Y1037459D01*
X628520D01*
X630319Y1035661D01*
Y1033862D01*
X628520Y1032064D01*
X626722D01*
X628520D01*
X630319Y1030265D01*
Y1028467D01*
X628520Y1026668D01*
X624923D01*
X623125Y1028467D01*
X633916Y1026668D02*
Y1037459D01*
X639312D01*
X641110Y1035661D01*
Y1032064D01*
X639312Y1030265D01*
X633916D01*
X637513D02*
X641110Y1026668D01*
X724916Y991973D02*
X726715Y993772D01*
X730312D01*
X732110Y991973D01*
Y990174D01*
X730312Y988376D01*
X728513D01*
X730312D01*
X732110Y986577D01*
Y984779D01*
X730312Y982980D01*
X726715D01*
X724916Y984779D01*
X735707Y991973D02*
X737506Y993772D01*
X741103D01*
X742902Y991973D01*
Y990174D01*
X741103Y988376D01*
X739305D01*
X741103D01*
X742902Y986577D01*
Y984779D01*
X741103Y982980D01*
X737506D01*
X735707Y984779D01*
X746499Y982980D02*
Y993772D01*
X751895D01*
X753693Y991973D01*
Y988376D01*
X751895Y986577D01*
X746499D01*
X750096D02*
X753693Y982980D01*
X726440Y931267D02*
X728239Y933065D01*
X731836D01*
X733634Y931267D01*
Y929468D01*
X731836Y927670D01*
X730037D01*
X731836D01*
X733634Y925871D01*
Y924073D01*
X731836Y922274D01*
X728239D01*
X726440Y924073D01*
X737232Y931267D02*
X739030Y933065D01*
X742627D01*
X744426Y931267D01*
Y929468D01*
X742627Y927670D01*
X740829D01*
X742627D01*
X744426Y925871D01*
Y924073D01*
X742627Y922274D01*
X739030D01*
X737232Y924073D01*
X748023Y922274D02*
Y933065D01*
X753419D01*
X755217Y931267D01*
Y927670D01*
X753419Y925871D01*
X748023D01*
X751620D02*
X755217Y922274D01*
X727964Y871323D02*
X729763Y873121D01*
X733360D01*
X735158Y871323D01*
Y869524D01*
X733360Y867726D01*
X731561D01*
X733360D01*
X735158Y865927D01*
Y864129D01*
X733360Y862330D01*
X729763D01*
X727964Y864129D01*
X738755Y871323D02*
X740554Y873121D01*
X744151D01*
X745950Y871323D01*
Y869524D01*
X744151Y867726D01*
X742353D01*
X744151D01*
X745950Y865927D01*
Y864129D01*
X744151Y862330D01*
X740554D01*
X738755Y864129D01*
X749547Y862330D02*
Y873121D01*
X754943D01*
X756741Y871323D01*
Y867726D01*
X754943Y865927D01*
X749547D01*
X753144D02*
X756741Y862330D01*
X728726Y810617D02*
X730525Y812415D01*
X734122D01*
X735920Y810617D01*
Y808818D01*
X734122Y807020D01*
X732323D01*
X734122D01*
X735920Y805221D01*
Y803423D01*
X734122Y801624D01*
X730525D01*
X728726Y803423D01*
X739518Y810617D02*
X741316Y812415D01*
X744913D01*
X746712Y810617D01*
Y808818D01*
X744913Y807020D01*
X743115D01*
X744913D01*
X746712Y805221D01*
Y803423D01*
X744913Y801624D01*
X741316D01*
X739518Y803423D01*
X750309Y801624D02*
Y812415D01*
X755705D01*
X757503Y810617D01*
Y807020D01*
X755705Y805221D01*
X750309D01*
X753906D02*
X757503Y801624D01*
X613410Y789535D02*
X615209Y791333D01*
X618806D01*
X620604Y789535D01*
Y787736D01*
X618806Y785938D01*
X617007D01*
X618806D01*
X620604Y784139D01*
Y782341D01*
X618806Y780542D01*
X615209D01*
X613410Y782341D01*
X624202Y789535D02*
X626000Y791333D01*
X629597D01*
X631396Y789535D01*
Y787736D01*
X629597Y785938D01*
X627799D01*
X629597D01*
X631396Y784139D01*
Y782341D01*
X629597Y780542D01*
X626000D01*
X624202Y782341D01*
X634993Y780542D02*
Y791333D01*
X640389D01*
X642187Y789535D01*
Y785938D01*
X640389Y784139D01*
X634993D01*
X638590D02*
X642187Y780542D01*
X727710Y756769D02*
X729509Y758568D01*
X733106D01*
X734904Y756769D01*
Y754970D01*
X733106Y753172D01*
X731307D01*
X733106D01*
X734904Y751373D01*
Y749575D01*
X733106Y747776D01*
X729509D01*
X727710Y749575D01*
X738502Y756769D02*
X740300Y758568D01*
X743897D01*
X745696Y756769D01*
Y754970D01*
X743897Y753172D01*
X742099D01*
X743897D01*
X745696Y751373D01*
Y749575D01*
X743897Y747776D01*
X740300D01*
X738502Y749575D01*
X749293Y747776D02*
Y758568D01*
X754689D01*
X756487Y756769D01*
Y753172D01*
X754689Y751373D01*
X749293D01*
X752890D02*
X756487Y747776D01*
X611632Y725781D02*
X613431Y727579D01*
X617028D01*
X618826Y725781D01*
Y723982D01*
X617028Y722184D01*
X615229D01*
X617028D01*
X618826Y720385D01*
Y718587D01*
X617028Y716788D01*
X613431D01*
X611632Y718587D01*
X622424Y725781D02*
X624222Y727579D01*
X627819D01*
X629618Y725781D01*
Y723982D01*
X627819Y722184D01*
X626021D01*
X627819D01*
X629618Y720385D01*
Y718587D01*
X627819Y716788D01*
X624222D01*
X622424Y718587D01*
X633215Y716788D02*
Y727579D01*
X638611D01*
X640409Y725781D01*
Y722184D01*
X638611Y720385D01*
X633215D01*
X636812D02*
X640409Y716788D01*
X612394Y976987D02*
X614193Y978785D01*
X617790D01*
X619588Y976987D01*
Y975188D01*
X617790Y973390D01*
X615991D01*
X617790D01*
X619588Y971591D01*
Y969793D01*
X617790Y967994D01*
X614193D01*
X612394Y969793D01*
X623186Y976987D02*
X624984Y978785D01*
X628581D01*
X630380Y976987D01*
Y975188D01*
X628581Y973390D01*
X626783D01*
X628581D01*
X630380Y971591D01*
Y969793D01*
X628581Y967994D01*
X624984D01*
X623186Y969793D01*
X633977Y967994D02*
Y978785D01*
X639373D01*
X641171Y976987D01*
Y973390D01*
X639373Y971591D01*
X633977D01*
X637574D02*
X641171Y967994D01*
X611378Y916535D02*
X613177Y918334D01*
X616774D01*
X618572Y916535D01*
Y914736D01*
X616774Y912938D01*
X614975D01*
X616774D01*
X618572Y911139D01*
Y909341D01*
X616774Y907542D01*
X613177D01*
X611378Y909341D01*
X622169Y916535D02*
X623968Y918334D01*
X627565D01*
X629364Y916535D01*
Y914736D01*
X627565Y912938D01*
X625767D01*
X627565D01*
X629364Y911139D01*
Y909341D01*
X627565Y907542D01*
X623968D01*
X622169Y909341D01*
X632961Y907542D02*
Y918334D01*
X638357D01*
X640155Y916535D01*
Y912938D01*
X638357Y911139D01*
X632961D01*
X636558D02*
X640155Y907542D01*
X612394Y852527D02*
X614193Y854325D01*
X617790D01*
X619588Y852527D01*
Y850728D01*
X617790Y848930D01*
X615991D01*
X617790D01*
X619588Y847131D01*
Y845333D01*
X617790Y843534D01*
X614193D01*
X612394Y845333D01*
X623186Y852527D02*
X624984Y854325D01*
X628581D01*
X630380Y852527D01*
Y850728D01*
X628581Y848930D01*
X626783D01*
X628581D01*
X630380Y847131D01*
Y845333D01*
X628581Y843534D01*
X624984D01*
X623186Y845333D01*
X633977Y843534D02*
Y854325D01*
X639373D01*
X641171Y852527D01*
Y848930D01*
X639373Y847131D01*
X633977D01*
X637574D02*
X641171Y843534D01*
D149*
X1035050Y396748D02*
Y396964D01*
X1035158D01*
X1035194Y396928D01*
Y396856D01*
X1035158Y396820D01*
X1035050D01*
X1035266Y396964D02*
X1035410D01*
X1035338D01*
Y396748D01*
X1035482D02*
Y396964D01*
X1035590D01*
X1035626Y396928D01*
Y396856D01*
X1035590Y396820D01*
X1035482D01*
X1035554D02*
X1035626Y396748D01*
X1035697D02*
X1035769D01*
X1035733D01*
Y396964D01*
X1035697Y396928D01*
X1035877Y396748D02*
Y396964D01*
X1035985D01*
X1036021Y396928D01*
Y396856D01*
X1035985Y396820D01*
X1035877D01*
X1036093Y396748D02*
Y396892D01*
X1036165Y396964D01*
X1036237Y396892D01*
Y396748D01*
Y396856D01*
X1036093D01*
X1036309Y396964D02*
Y396748D01*
X1036417D01*
X1036453Y396784D01*
Y396928D01*
X1036417Y396964D01*
X1036309D01*
X1036525Y396748D02*
X1036597D01*
X1036561D01*
Y396964D01*
X1036525Y396928D01*
X1036705Y396856D02*
X1036849D01*
X1036920Y396748D02*
X1036992D01*
X1036956D01*
Y396964D01*
X1036920Y396928D01*
X1037100D02*
X1037136Y396964D01*
X1037208D01*
X1037244Y396928D01*
Y396892D01*
X1037208Y396856D01*
X1037172D01*
X1037208D01*
X1037244Y396820D01*
Y396784D01*
X1037208Y396748D01*
X1037136D01*
X1037100Y396784D01*
X1107186Y283718D02*
Y283934D01*
X1107294D01*
X1107330Y283898D01*
Y283826D01*
X1107294Y283790D01*
X1107186D01*
X1107402Y283934D02*
X1107546D01*
X1107474D01*
Y283718D01*
X1107618D02*
Y283934D01*
X1107726D01*
X1107762Y283898D01*
Y283826D01*
X1107726Y283790D01*
X1107618D01*
X1107690D02*
X1107762Y283718D01*
X1107833D02*
X1107905D01*
X1107869D01*
Y283934D01*
X1107833Y283898D01*
X1108013Y283718D02*
Y283934D01*
X1108121D01*
X1108157Y283898D01*
Y283826D01*
X1108121Y283790D01*
X1108013D01*
X1108229Y283718D02*
Y283862D01*
X1108301Y283934D01*
X1108373Y283862D01*
Y283718D01*
Y283826D01*
X1108229D01*
X1108445Y283934D02*
Y283718D01*
X1108553D01*
X1108589Y283754D01*
Y283898D01*
X1108553Y283934D01*
X1108445D01*
X1108661Y283718D02*
X1108733D01*
X1108697D01*
Y283934D01*
X1108661Y283898D01*
X1108841Y283826D02*
X1108985D01*
X1109056Y283718D02*
X1109128D01*
X1109092D01*
Y283934D01*
X1109056Y283898D01*
X1109236D02*
X1109272Y283934D01*
X1109344D01*
X1109380Y283898D01*
Y283862D01*
X1109344Y283826D01*
X1109308D01*
X1109344D01*
X1109380Y283790D01*
Y283754D01*
X1109344Y283718D01*
X1109272D01*
X1109236Y283754D01*
X1448562Y1021334D02*
Y1021550D01*
X1448670D01*
X1448706Y1021514D01*
Y1021442D01*
X1448670Y1021406D01*
X1448562D01*
X1448778Y1021550D02*
X1448922D01*
X1448850D01*
Y1021334D01*
X1448994D02*
Y1021550D01*
X1449102D01*
X1449138Y1021514D01*
Y1021442D01*
X1449102Y1021406D01*
X1448994D01*
X1449066D02*
X1449138Y1021334D01*
X1449209D02*
X1449281D01*
X1449245D01*
Y1021550D01*
X1449209Y1021514D01*
X1449389Y1021334D02*
Y1021550D01*
X1449497D01*
X1449533Y1021514D01*
Y1021442D01*
X1449497Y1021406D01*
X1449389D01*
X1449605Y1021334D02*
Y1021478D01*
X1449677Y1021550D01*
X1449749Y1021478D01*
Y1021334D01*
Y1021442D01*
X1449605D01*
X1449821Y1021550D02*
Y1021334D01*
X1449929D01*
X1449965Y1021370D01*
Y1021514D01*
X1449929Y1021550D01*
X1449821D01*
X1450037Y1021334D02*
X1450109D01*
X1450073D01*
Y1021550D01*
X1450037Y1021514D01*
X1450217Y1021442D02*
X1450361D01*
X1450432Y1021334D02*
X1450504D01*
X1450468D01*
Y1021550D01*
X1450432Y1021514D01*
X1450612D02*
X1450648Y1021550D01*
X1450720D01*
X1450756Y1021514D01*
Y1021478D01*
X1450720Y1021442D01*
X1450684D01*
X1450720D01*
X1450756Y1021406D01*
Y1021370D01*
X1450720Y1021334D01*
X1450648D01*
X1450612Y1021370D01*
X1447546Y907542D02*
Y907758D01*
X1447654D01*
X1447690Y907722D01*
Y907650D01*
X1447654Y907614D01*
X1447546D01*
X1447762Y907758D02*
X1447906D01*
X1447834D01*
Y907542D01*
X1447978D02*
Y907758D01*
X1448086D01*
X1448121Y907722D01*
Y907650D01*
X1448086Y907614D01*
X1447978D01*
X1448050D02*
X1448121Y907542D01*
X1448194D02*
X1448265D01*
X1448229D01*
Y907758D01*
X1448194Y907722D01*
X1448373Y907542D02*
Y907758D01*
X1448481D01*
X1448517Y907722D01*
Y907650D01*
X1448481Y907614D01*
X1448373D01*
X1448589Y907542D02*
Y907686D01*
X1448661Y907758D01*
X1448733Y907686D01*
Y907542D01*
Y907650D01*
X1448589D01*
X1448805Y907758D02*
Y907542D01*
X1448913D01*
X1448949Y907578D01*
Y907722D01*
X1448913Y907758D01*
X1448805D01*
X1449021Y907542D02*
X1449093D01*
X1449057D01*
Y907758D01*
X1449021Y907722D01*
X1449201Y907650D02*
X1449344D01*
X1449417Y907542D02*
X1449488D01*
X1449452D01*
Y907758D01*
X1449417Y907722D01*
X1449596D02*
X1449632Y907758D01*
X1449704D01*
X1449740Y907722D01*
Y907686D01*
X1449704Y907650D01*
X1449668D01*
X1449704D01*
X1449740Y907614D01*
Y907578D01*
X1449704Y907542D01*
X1449632D01*
X1449596Y907578D01*
X1463802Y503428D02*
Y503644D01*
X1463910D01*
X1463946Y503608D01*
Y503536D01*
X1463910Y503500D01*
X1463802D01*
X1464018Y503644D02*
X1464162D01*
X1464090D01*
Y503428D01*
X1464234D02*
Y503644D01*
X1464342D01*
X1464377Y503608D01*
Y503536D01*
X1464342Y503500D01*
X1464234D01*
X1464306D02*
X1464377Y503428D01*
X1464449D02*
X1464521D01*
X1464485D01*
Y503644D01*
X1464449Y503608D01*
X1464629Y503428D02*
Y503644D01*
X1464737D01*
X1464773Y503608D01*
Y503536D01*
X1464737Y503500D01*
X1464629D01*
X1464845Y503428D02*
Y503572D01*
X1464917Y503644D01*
X1464989Y503572D01*
Y503428D01*
Y503536D01*
X1464845D01*
X1465061Y503644D02*
Y503428D01*
X1465169D01*
X1465205Y503464D01*
Y503608D01*
X1465169Y503644D01*
X1465061D01*
X1465277Y503428D02*
X1465349D01*
X1465313D01*
Y503644D01*
X1465277Y503608D01*
X1465457Y503536D02*
X1465600D01*
X1465672Y503428D02*
X1465744D01*
X1465708D01*
Y503644D01*
X1465672Y503608D01*
X1465852D02*
X1465888Y503644D01*
X1465960D01*
X1465996Y503608D01*
Y503572D01*
X1465960Y503536D01*
X1465924D01*
X1465960D01*
X1465996Y503500D01*
Y503464D01*
X1465960Y503428D01*
X1465888D01*
X1465852Y503464D01*
X1464564Y544068D02*
Y544284D01*
X1464672D01*
X1464708Y544248D01*
Y544176D01*
X1464672Y544140D01*
X1464564D01*
X1464780Y544284D02*
X1464924D01*
X1464852D01*
Y544068D01*
X1464996D02*
Y544284D01*
X1465104D01*
X1465139Y544248D01*
Y544176D01*
X1465104Y544140D01*
X1464996D01*
X1465068D02*
X1465139Y544068D01*
X1465211D02*
X1465283D01*
X1465247D01*
Y544284D01*
X1465211Y544248D01*
X1465391Y544068D02*
Y544284D01*
X1465499D01*
X1465535Y544248D01*
Y544176D01*
X1465499Y544140D01*
X1465391D01*
X1465607Y544068D02*
Y544212D01*
X1465679Y544284D01*
X1465751Y544212D01*
Y544068D01*
Y544176D01*
X1465607D01*
X1465823Y544284D02*
Y544068D01*
X1465931D01*
X1465967Y544104D01*
Y544248D01*
X1465931Y544284D01*
X1465823D01*
X1466039Y544068D02*
X1466111D01*
X1466075D01*
Y544284D01*
X1466039Y544248D01*
X1466219Y544176D02*
X1466362D01*
X1466434Y544068D02*
X1466506D01*
X1466470D01*
Y544284D01*
X1466434Y544248D01*
X1466614D02*
X1466650Y544284D01*
X1466722D01*
X1466758Y544248D01*
Y544212D01*
X1466722Y544176D01*
X1466686D01*
X1466722D01*
X1466758Y544140D01*
Y544104D01*
X1466722Y544068D01*
X1466650D01*
X1466614Y544104D01*
X735584Y339852D02*
Y340068D01*
X735692D01*
X735728Y340032D01*
Y339960D01*
X735692Y339924D01*
X735584D01*
X735800Y340068D02*
X735944D01*
X735872D01*
Y339852D01*
X736016D02*
Y340068D01*
X736124D01*
X736160Y340032D01*
Y339960D01*
X736124Y339924D01*
X736016D01*
X736088D02*
X736160Y339852D01*
X736232D02*
X736303D01*
X736267D01*
Y340068D01*
X736232Y340032D01*
X736411Y339852D02*
Y340068D01*
X736519D01*
X736555Y340032D01*
Y339960D01*
X736519Y339924D01*
X736411D01*
X736627Y339852D02*
Y339996D01*
X736699Y340068D01*
X736771Y339996D01*
Y339852D01*
Y339960D01*
X736627D01*
X736843Y340068D02*
Y339852D01*
X736951D01*
X736987Y339888D01*
Y340032D01*
X736951Y340068D01*
X736843D01*
X737059Y339852D02*
X737131D01*
X737095D01*
Y340068D01*
X737059Y340032D01*
X737239Y339960D02*
X737383D01*
X737455Y339852D02*
X737526D01*
X737490D01*
Y340068D01*
X737455Y340032D01*
X737634D02*
X737670Y340068D01*
X737742D01*
X737778Y340032D01*
Y339996D01*
X737742Y339960D01*
X737706D01*
X737742D01*
X737778Y339924D01*
Y339888D01*
X737742Y339852D01*
X737670D01*
X737634Y339888D01*
X648970Y398780D02*
Y398996D01*
X649078D01*
X649114Y398960D01*
Y398888D01*
X649078Y398852D01*
X648970D01*
X649186Y398996D02*
X649330D01*
X649258D01*
Y398780D01*
X649402D02*
Y398996D01*
X649510D01*
X649546Y398960D01*
Y398888D01*
X649510Y398852D01*
X649402D01*
X649474D02*
X649546Y398780D01*
X649617D02*
X649689D01*
X649653D01*
Y398996D01*
X649617Y398960D01*
X649797Y398780D02*
Y398996D01*
X649905D01*
X649941Y398960D01*
Y398888D01*
X649905Y398852D01*
X649797D01*
X650013Y398780D02*
Y398924D01*
X650085Y398996D01*
X650157Y398924D01*
Y398780D01*
Y398888D01*
X650013D01*
X650229Y398996D02*
Y398780D01*
X650337D01*
X650373Y398816D01*
Y398960D01*
X650337Y398996D01*
X650229D01*
X650445Y398780D02*
X650517D01*
X650481D01*
Y398996D01*
X650445Y398960D01*
X650625Y398888D02*
X650769D01*
X650841Y398780D02*
X650912D01*
X650876D01*
Y398996D01*
X650841Y398960D01*
X651020D02*
X651056Y398996D01*
X651128D01*
X651164Y398960D01*
Y398924D01*
X651128Y398888D01*
X651092D01*
X651128D01*
X651164Y398852D01*
Y398816D01*
X651128Y398780D01*
X651056D01*
X651020Y398816D01*
X882904Y437896D02*
Y438112D01*
X883012D01*
X883048Y438076D01*
Y438004D01*
X883012Y437968D01*
X882904D01*
X883120Y438112D02*
X883264D01*
X883192D01*
Y437896D01*
X883336D02*
Y438112D01*
X883444D01*
X883480Y438076D01*
Y438004D01*
X883444Y437968D01*
X883336D01*
X883408D02*
X883480Y437896D01*
X883551D02*
X883623D01*
X883587D01*
Y438112D01*
X883551Y438076D01*
X883731Y437896D02*
Y438112D01*
X883839D01*
X883875Y438076D01*
Y438004D01*
X883839Y437968D01*
X883731D01*
X883947Y437896D02*
Y438040D01*
X884019Y438112D01*
X884091Y438040D01*
Y437896D01*
Y438004D01*
X883947D01*
X884163Y438112D02*
Y437896D01*
X884271D01*
X884307Y437932D01*
Y438076D01*
X884271Y438112D01*
X884163D01*
X884379Y437896D02*
X884451D01*
X884415D01*
Y438112D01*
X884379Y438076D01*
X884559Y438004D02*
X884703D01*
X884774Y437896D02*
X884846D01*
X884810D01*
Y438112D01*
X884774Y438076D01*
X884954D02*
X884990Y438112D01*
X885062D01*
X885098Y438076D01*
Y438040D01*
X885062Y438004D01*
X885026D01*
X885062D01*
X885098Y437968D01*
Y437932D01*
X885062Y437896D01*
X884990D01*
X884954Y437932D01*
X679450Y323342D02*
Y323558D01*
X679558D01*
X679594Y323522D01*
Y323450D01*
X679558Y323414D01*
X679450D01*
X679666Y323558D02*
X679810D01*
X679738D01*
Y323342D01*
X679882D02*
Y323558D01*
X679990D01*
X680025Y323522D01*
Y323450D01*
X679990Y323414D01*
X679882D01*
X679954D02*
X680025Y323342D01*
X680098D02*
X680169D01*
X680133D01*
Y323558D01*
X680098Y323522D01*
X680277Y323342D02*
Y323558D01*
X680385D01*
X680421Y323522D01*
Y323450D01*
X680385Y323414D01*
X680277D01*
X680493Y323342D02*
Y323486D01*
X680565Y323558D01*
X680637Y323486D01*
Y323342D01*
Y323450D01*
X680493D01*
X680709Y323558D02*
Y323342D01*
X680817D01*
X680853Y323378D01*
Y323522D01*
X680817Y323558D01*
X680709D01*
X680925Y323342D02*
X680997D01*
X680961D01*
Y323558D01*
X680925Y323522D01*
X681105Y323450D02*
X681248D01*
X681320Y323342D02*
X681392D01*
X681356D01*
Y323558D01*
X681320Y323522D01*
X681500D02*
X681536Y323558D01*
X681608D01*
X681644Y323522D01*
Y323486D01*
X681608Y323450D01*
X681572D01*
X681608D01*
X681644Y323414D01*
Y323378D01*
X681608Y323342D01*
X681536D01*
X681500Y323378D01*
M02*
