G04 Layer_Physical_Order=4*
G04 Layer_Color=16711680*
%FSLAX44Y44*%
%MOMM*%
G71*
G01*
G75*
%ADD20R,1.1001X1.0000*%
%ADD34R,2.8001X2.4001*%
%ADD39C,0.3048*%
%ADD40C,0.4064*%
%ADD42C,0.2540*%
%ADD44C,1.2700*%
%ADD45C,0.6096*%
%ADD46C,0.4060*%
%ADD48C,4.0000*%
%ADD49C,1.5240*%
%ADD50R,1.5240X1.5240*%
%ADD51P,2.2627X8X22.5*%
%ADD52R,1.3716X1.3716*%
%ADD53C,1.3716*%
%ADD54C,2.4384*%
%ADD55C,3.2512*%
%ADD56C,8.0000*%
%ADD57C,1.0064*%
%ADD58C,1.2700*%
D20*
X961898Y553075D02*
D03*
Y536077D02*
D03*
X935228Y581543D02*
D03*
Y598541D02*
D03*
X1241552Y786013D02*
D03*
Y803011D02*
D03*
X1088898Y956173D02*
D03*
Y939175D02*
D03*
X961644Y614563D02*
D03*
Y631561D02*
D03*
X934085Y662188D02*
D03*
Y679186D02*
D03*
X961009Y693811D02*
D03*
Y710809D02*
D03*
X934339Y722513D02*
D03*
Y739511D02*
D03*
X953516Y1030742D02*
D03*
Y1047740D02*
D03*
X956945Y764423D02*
D03*
Y781421D02*
D03*
X933069Y812683D02*
D03*
Y829681D02*
D03*
X957453Y857387D02*
D03*
Y874385D02*
D03*
X933323Y898281D02*
D03*
Y915279D02*
D03*
X954278Y943747D02*
D03*
Y960745D02*
D03*
X930402Y982990D02*
D03*
Y999988D02*
D03*
D34*
X1565910Y823981D02*
D03*
Y760979D02*
D03*
X1566418Y560065D02*
D03*
Y623067D02*
D03*
D39*
X1230630Y852678D02*
X1281938D01*
X1210056Y832104D02*
X1230630Y852678D01*
X935492Y832104D02*
X952246D01*
X933069Y829681D02*
X935492Y832104D01*
X957453Y837311D02*
Y857387D01*
X952246Y832104D02*
X957453Y837311D01*
X940064Y805688D02*
X951484D01*
X933069Y812683D02*
X940064Y805688D01*
X956945Y781421D02*
Y800227D01*
X951484Y805688D02*
X956945Y800227D01*
X940308Y763016D02*
X955538D01*
X956945Y764423D01*
X934339Y739511D02*
Y757047D01*
X940308Y763016D01*
X934339Y722513D02*
X946287D01*
X946912Y723138D01*
X959241Y710809D02*
X961009D01*
X946912Y723138D02*
X959241Y710809D01*
X961009Y693811D02*
X978271D01*
X979678Y692404D01*
X934085Y679186D02*
X946386D01*
X961009Y693811D01*
X961644Y631561D02*
X986145D01*
X988568Y633984D01*
X961644Y608838D02*
Y614563D01*
X950722Y597916D02*
X961644Y608838D01*
X935228Y598541D02*
X950097D01*
X950722Y597916D01*
X1089152Y987044D02*
Y1019556D01*
X1088898Y1019810D02*
X1089152Y1019556D01*
X901446Y554990D02*
X902208D01*
X901700Y594360D02*
X901954Y594106D01*
Y593852D02*
Y594106D01*
Y634238D02*
X902208Y634492D01*
X901954Y673100D02*
X902208D01*
X902462Y672846D01*
X901700Y711708D02*
X902208D01*
X901700Y750570D02*
X902716Y749808D01*
X901700Y789686D02*
X902970Y790194D01*
X901446Y829564D02*
X902208Y829310D01*
X901446Y829564D02*
X901954Y829056D01*
X916432Y877316D02*
X920242D01*
X902716Y911352D02*
X903224Y910082D01*
Y951992D02*
X903732Y952246D01*
X969401Y528574D02*
X976376D01*
X961898Y536077D02*
X969401Y528574D01*
X864616Y327660D02*
Y328930D01*
X864870Y329184D01*
X1075573Y956173D02*
X1088898D01*
X1075436Y956310D02*
X1075573Y956173D01*
X1163320Y1024636D02*
Y1050290D01*
X1154430Y1015746D02*
X1163320Y1024636D01*
X863854Y472948D02*
X864108D01*
X899922Y508762D01*
X765302Y478028D02*
X810768D01*
X827786Y495046D01*
Y549148D01*
X828294Y549656D01*
X1111504Y798322D02*
Y843026D01*
Y798322D02*
X1111758Y798068D01*
X1138428Y888238D02*
Y914400D01*
X1100328Y850138D02*
X1138428Y888238D01*
X1100328Y791464D02*
Y850138D01*
X1088136Y779272D02*
X1100328Y791464D01*
X1088136Y756412D02*
Y779272D01*
X797052Y565150D02*
X810514D01*
X819912Y574548D01*
X836422D01*
X869696Y541274D01*
X930402D01*
X934720Y536956D01*
X846074Y530606D02*
Y550926D01*
X833628Y563372D02*
X846074Y550926D01*
X818642Y563372D02*
X833628D01*
X798322Y543052D02*
X818642Y563372D01*
X1103376Y774446D02*
X1115060Y786130D01*
X1117092D01*
X1121410Y790448D01*
Y862838D01*
X1148334Y889762D01*
Y903732D01*
X1152398Y907796D01*
Y913638D01*
X1075573Y939175D02*
X1088898D01*
X1075436Y939038D02*
X1075573Y939175D01*
X1239774Y804789D02*
X1241552Y803011D01*
X1253998Y815457D02*
Y819404D01*
X1241552Y803011D02*
X1253998Y815457D01*
X861822Y511556D02*
X862838Y512572D01*
X1162558Y904494D02*
X1167130D01*
X1155446Y897382D02*
X1162558Y904494D01*
X1155446Y886460D02*
Y897382D01*
X1128776Y859790D02*
X1155446Y886460D01*
X1128776Y780796D02*
Y859790D01*
X1121156Y773176D02*
X1128776Y780796D01*
D40*
X930519Y960999D02*
X954278Y960745D01*
X929894Y959104D02*
X930519Y960999D01*
X937768Y937768D02*
X948807Y938276D01*
X954278Y943747D01*
X933450Y644398D02*
Y661553D01*
X934085Y662188D01*
X792226Y743712D02*
Y754380D01*
X752856Y793750D02*
X792226Y754380D01*
X762254Y895096D02*
X767588D01*
X781812Y880872D01*
Y850392D02*
Y880872D01*
Y850392D02*
X785114Y847090D01*
X792734D01*
X792988Y847344D01*
X752856Y853694D02*
X753110Y862838D01*
X788924Y779018D02*
X789432D01*
X762000Y805942D02*
X788924Y779018D01*
X812800Y736092D02*
Y753364D01*
X801878Y725170D02*
X812800Y736092D01*
X789432Y725170D02*
X801878D01*
X780034Y734568D02*
X789432Y725170D01*
X780034Y734568D02*
Y747522D01*
X735838Y791718D02*
X780034Y747522D01*
X752856Y726948D02*
X767334D01*
X729996Y749808D02*
X752856Y726948D01*
X729996Y749808D02*
Y777748D01*
X728726Y779018D02*
X729996Y777748D01*
X1070229Y816610D02*
X1071499D01*
X1069594Y817245D02*
X1070229Y816610D01*
X1071118Y796925D02*
X1071245Y796671D01*
X811403Y351536D02*
X812927Y352298D01*
X902970Y995426D02*
X903478Y995680D01*
X902970Y995172D02*
X903478Y995680D01*
X901954Y1044956D02*
X902208Y1044702D01*
X1166114Y1006348D02*
X1166876Y1007364D01*
X1166622Y1007618D02*
X1166876Y1007364D01*
X771906Y465836D02*
Y466090D01*
X771652Y466344D02*
X771906Y466090D01*
X722122Y369824D02*
Y370586D01*
X718566Y366268D02*
X722122Y369824D01*
X1241552Y767080D02*
Y786013D01*
Y767080D02*
X1243584Y765048D01*
X935228Y567944D02*
Y581543D01*
Y567944D02*
X941832Y561340D01*
X950097Y553075D02*
X961898D01*
X941832Y561340D02*
X950097Y553075D01*
X702056Y360172D02*
Y401574D01*
Y360172D02*
X705358Y356870D01*
X739902D01*
X774954Y391922D01*
X817372D01*
X818642Y393192D01*
X828294Y544322D02*
Y549656D01*
X717550Y393192D02*
X732536Y408178D01*
X788924Y458470D02*
X806450D01*
X828040Y436880D01*
X828294D01*
X829564Y435610D01*
Y384048D02*
Y435610D01*
Y384048D02*
X831596Y382016D01*
X845058D01*
X846582Y380492D01*
X781050Y800100D02*
X790956D01*
X765810Y815340D02*
X781050Y800100D01*
X745490Y815340D02*
X765810D01*
X733298Y827532D02*
X745490Y815340D01*
X733044Y862584D02*
X733552Y866140D01*
X953516Y1047740D02*
X968492D01*
X975614Y1054862D01*
X729488Y976884D02*
X732028Y974344D01*
X794004Y877570D02*
Y881126D01*
X767588Y907542D02*
X794004Y881126D01*
X745490Y941832D02*
X761492D01*
X790448Y912876D01*
X838200Y487934D02*
X861822Y511556D01*
X838200Y394716D02*
Y487934D01*
Y394716D02*
X838962Y393954D01*
X733044Y862584D02*
X733239Y835663D01*
X733298Y827532D01*
X752856Y842264D02*
Y853694D01*
Y842264D02*
X773176Y821944D01*
X792480D01*
X720090Y419608D02*
Y457200D01*
X702056Y401574D02*
X720090Y419608D01*
X762000Y426720D02*
Y434848D01*
D42*
X930402Y982990D02*
X942838D01*
X945134Y980694D01*
X941588Y923544D02*
X950976D01*
X933323Y915279D02*
X941588Y923544D01*
X938286Y893318D02*
X956564D01*
X933323Y898281D02*
X938286Y893318D01*
X957453Y874385D02*
Y892429D01*
X956564Y893318D02*
X957453Y892429D01*
X1103884Y913384D02*
X1107694Y912114D01*
X969772Y1019810D02*
Y1027176D01*
X966470Y1030478D02*
X969772Y1027176D01*
X953780Y1030478D02*
X966470D01*
X953516Y1030742D02*
X953780Y1030478D01*
X937270Y1006856D02*
X946404D01*
X930402Y999988D02*
X937270Y1006856D01*
X254000Y254000D02*
X1703837D01*
X1704088Y254251D01*
Y1113539D01*
X1704340Y1113790D01*
X254000D02*
X1704340D01*
X254000Y254000D02*
Y1113790D01*
D44*
X1477264Y378968D02*
X1481836D01*
X1006856Y491490D02*
Y1056132D01*
X1009904Y1059180D01*
X1006348Y460756D02*
Y490982D01*
X1006856Y491490D01*
X1533398Y595630D02*
X1538981D01*
X1566418Y623067D01*
X1554231Y760979D02*
X1565910D01*
X1554231D02*
Y764789D01*
X1545844Y773176D02*
X1554231Y764789D01*
X1533144Y773176D02*
X1545844D01*
X1384808Y960882D02*
X1388110D01*
X1063244Y381000D02*
Y486918D01*
X1040638Y358394D02*
X1063244Y381000D01*
D45*
X1176020Y931672D02*
X1183132Y924560D01*
X1176020Y931672D02*
Y935990D01*
X1183132Y924560D02*
X1185418D01*
X1321308Y408178D02*
X1321562Y405638D01*
X1242060Y1054862D02*
Y1057402D01*
X1273810Y1054354D02*
Y1054862D01*
X1154430Y1015492D02*
Y1015746D01*
X1152906Y1013968D02*
X1154430Y1015492D01*
X1152906Y956818D02*
Y1013968D01*
Y956818D02*
X1159256Y950468D01*
X1173226Y936752D01*
X1176020Y935990D01*
X1185418Y924560D02*
X1187704Y922274D01*
X1201420D01*
X1201674Y922020D01*
Y921258D02*
Y922020D01*
Y921258D02*
X1207008Y915924D01*
X1226820D01*
X1227328Y915416D01*
X1214882Y929386D02*
Y1006856D01*
Y929386D02*
X1215136Y929132D01*
X1195324Y935228D02*
X1196848D01*
X1200150Y938530D01*
Y989584D01*
D46*
X407670Y910590D02*
X416730Y901530D01*
X421760D01*
X392430Y886860D02*
X421760Y857530D01*
X392430Y886860D02*
Y984250D01*
X412750Y1004570D01*
X530860D01*
X562610Y972820D01*
X574040D01*
X400050Y901240D02*
X421760Y879530D01*
X400050Y901240D02*
Y975360D01*
X414020Y989330D01*
X407670Y910590D02*
Y962660D01*
X420370Y975360D01*
X336550Y920740D02*
Y996950D01*
Y920740D02*
X421760Y835530D01*
X414020Y989330D02*
X519430D01*
X420370Y975360D02*
X449580D01*
X336550Y996950D02*
X359410Y1019810D01*
X496570D01*
X359410Y1036320D02*
X482600D01*
X326390Y1003300D02*
X359410Y1036320D01*
X326390Y908900D02*
Y1003300D01*
Y908900D02*
X421760Y813530D01*
X767080Y848360D02*
X775970Y839470D01*
X767080Y848360D02*
Y868680D01*
X755650Y880110D02*
X767080Y868680D01*
X744220Y880110D02*
X755650D01*
X754380Y920750D02*
X767588Y907542D01*
X741680Y920750D02*
X754380D01*
X358140Y1050290D02*
X464820D01*
X316230Y1008380D02*
X358140Y1050290D01*
X316230Y897060D02*
Y1008380D01*
Y897060D02*
X421760Y791530D01*
X740918Y805942D02*
X762000D01*
X690880Y855980D02*
X740918Y805942D01*
X689610Y855980D02*
X690880D01*
X699516Y828040D02*
X735838Y791718D01*
X685800Y828040D02*
X699516D01*
X737108Y709422D02*
X777240D01*
X687070Y759460D02*
X737108Y709422D01*
X687070Y759460D02*
Y773430D01*
X779272Y678688D02*
X803148D01*
X758190Y699770D02*
X779272Y678688D01*
X728980Y699770D02*
X758190D01*
X673100Y755650D02*
X728980Y699770D01*
X673100Y755650D02*
Y759460D01*
X690372Y614172D02*
X756666D01*
X676910Y600710D02*
X690372Y614172D01*
X562610Y571500D02*
Y603250D01*
Y636270D01*
Y666750D01*
X762000Y434848D02*
Y474726D01*
X765302Y478028D01*
X732536Y408178D02*
X749300Y424942D01*
Y556260D01*
X732536Y573024D02*
X749300Y556260D01*
X736600Y435610D02*
Y463550D01*
X730250Y469900D02*
X736600Y463550D01*
X702310Y469900D02*
X730250D01*
X692150Y459740D02*
X702310Y469900D01*
X683260Y459740D02*
X692150D01*
X561340Y370840D02*
Y407670D01*
Y441960D01*
Y476250D01*
X562610Y477520D02*
Y571500D01*
X561340Y476250D02*
X562610Y477520D01*
X1566418Y542798D02*
Y560065D01*
X1562100Y538480D02*
X1564640Y535940D01*
X1562100Y538480D02*
X1566418Y542798D01*
X1565910Y823981D02*
X1583939D01*
X1595120Y812800D01*
D48*
X366910Y399060D02*
D03*
Y627060D02*
D03*
X365760Y938530D02*
D03*
Y798530D02*
D03*
D49*
X422910Y392060D02*
D03*
Y414060D02*
D03*
Y436060D02*
D03*
Y458060D02*
D03*
Y480060D02*
D03*
Y502060D02*
D03*
Y524060D02*
D03*
Y546060D02*
D03*
Y568060D02*
D03*
Y590060D02*
D03*
Y612060D02*
D03*
Y634060D02*
D03*
X452910D02*
D03*
Y612060D02*
D03*
Y590060D02*
D03*
Y568060D02*
D03*
Y546060D02*
D03*
Y524060D02*
D03*
Y502060D02*
D03*
Y480060D02*
D03*
Y458060D02*
D03*
Y436060D02*
D03*
Y414060D02*
D03*
X421760Y791530D02*
D03*
Y813530D02*
D03*
Y835530D02*
D03*
Y857530D02*
D03*
Y879530D02*
D03*
Y901530D02*
D03*
Y923530D02*
D03*
Y945530D02*
D03*
X451760D02*
D03*
Y923530D02*
D03*
Y901530D02*
D03*
Y879530D02*
D03*
Y857530D02*
D03*
Y835530D02*
D03*
Y813530D02*
D03*
D50*
X452910Y392060D02*
D03*
X451760Y791530D02*
D03*
D51*
X735584Y339852D02*
D03*
X1107186Y283718D02*
D03*
X679450Y323342D02*
D03*
X648970Y398780D02*
D03*
X882904Y437896D02*
D03*
X1464564Y544068D02*
D03*
X1463802Y503428D02*
D03*
X1447546Y907542D02*
D03*
X1448562Y1021334D02*
D03*
X1035050Y396748D02*
D03*
D52*
X1532890Y544830D02*
D03*
Y748030D02*
D03*
D53*
X1507490Y557530D02*
D03*
X1532890Y570230D02*
D03*
X1507490Y582930D02*
D03*
X1532890Y595630D02*
D03*
X1507490Y608330D02*
D03*
X1532890Y621030D02*
D03*
X1507490Y633730D02*
D03*
Y760730D02*
D03*
X1532890Y773430D02*
D03*
X1507490Y786130D02*
D03*
X1532890Y798830D02*
D03*
X1507490Y811530D02*
D03*
X1532890Y824230D02*
D03*
X1507490Y836930D02*
D03*
D54*
X1648460Y666750D02*
D03*
Y511810D02*
D03*
Y869950D02*
D03*
Y715010D02*
D03*
D55*
X1604010Y647700D02*
D03*
Y530860D02*
D03*
Y850900D02*
D03*
Y734060D02*
D03*
D56*
X302260Y1065530D02*
D03*
X1659890Y1069340D02*
D03*
X1658620Y299720D02*
D03*
X303530Y303530D02*
D03*
D57*
X1221740Y863600D02*
D03*
X1321308Y408178D02*
D03*
X1275080Y388620D02*
D03*
X1481836Y378968D02*
D03*
X945134Y980694D02*
D03*
X929894Y959104D02*
D03*
X937768Y937768D02*
D03*
X950976Y923544D02*
D03*
X956564Y893318D02*
D03*
X952246Y832104D02*
D03*
X951484Y805688D02*
D03*
X940308Y763016D02*
D03*
X946912Y723138D02*
D03*
X979678Y692404D02*
D03*
X933450Y644398D02*
D03*
X988568Y633984D02*
D03*
X950722Y597916D02*
D03*
X1009904Y1059180D02*
D03*
X1006348Y460756D02*
D03*
X777240Y709422D02*
D03*
X792226Y743712D02*
D03*
X752856Y793750D02*
D03*
X762254Y895096D02*
D03*
X792988Y847344D02*
D03*
X792480Y821944D02*
D03*
X753110Y862838D02*
D03*
X789432Y779018D02*
D03*
X1089152Y987044D02*
D03*
X1088898Y1019810D02*
D03*
X663448Y371856D02*
D03*
X756666Y614172D02*
D03*
X812800Y753364D02*
D03*
X767334Y726948D02*
D03*
X728726Y779018D02*
D03*
X803148Y678688D02*
D03*
X1210056Y832104D02*
D03*
X1281938Y852678D02*
D03*
X1042416Y1011936D02*
D03*
X1073150D02*
D03*
X1104900Y1011428D02*
D03*
X1103884Y913384D02*
D03*
X1071499Y816610D02*
D03*
X1071245Y796671D02*
D03*
X812927Y352298D02*
D03*
X902208Y554990D02*
D03*
X901700Y594360D02*
D03*
X902208Y634492D02*
D03*
X901954Y673100D02*
D03*
X901700Y711708D02*
D03*
Y750570D02*
D03*
Y789686D02*
D03*
X902208Y829310D02*
D03*
X916432Y877316D02*
D03*
X902716Y911352D02*
D03*
X903224Y951992D02*
D03*
X902970Y995426D02*
D03*
X902208Y1044702D02*
D03*
X1137666Y1014222D02*
D03*
X1281684Y833374D02*
D03*
X1166114Y1006348D02*
D03*
X1022096Y335026D02*
D03*
X975106Y334518D02*
D03*
X939546Y335788D02*
D03*
X771906Y465836D02*
D03*
X722122Y370586D02*
D03*
X976376Y528574D02*
D03*
X864616Y327660D02*
D03*
X1388110Y960882D02*
D03*
X1242060Y1054862D02*
D03*
X1273810Y1054354D02*
D03*
X711200Y343662D02*
D03*
X1075436Y956310D02*
D03*
X1243584Y765048D02*
D03*
X1163320Y1050290D02*
D03*
X1176020Y935990D02*
D03*
X1227328Y915416D02*
D03*
X1063244Y486918D02*
D03*
X1040638Y358394D02*
D03*
X941832Y561340D02*
D03*
X818642Y393192D02*
D03*
X899922Y508762D02*
D03*
X863854Y472948D02*
D03*
X828294Y549656D02*
D03*
X732536Y573024D02*
D03*
X717550Y393192D02*
D03*
X1111504Y843026D02*
D03*
X1111758Y798068D02*
D03*
X1138428Y914400D02*
D03*
X1088136Y756412D02*
D03*
X797052Y565150D02*
D03*
X934720Y536956D02*
D03*
X1103376Y774446D02*
D03*
X846074Y530606D02*
D03*
X798322Y543052D02*
D03*
X1152398Y913638D02*
D03*
X846582Y380492D02*
D03*
X788924Y458470D02*
D03*
X1075436Y939038D02*
D03*
X1253998Y819404D02*
D03*
X790956Y800100D02*
D03*
X733552Y866140D02*
D03*
X975614Y1054862D02*
D03*
X969772Y1019810D02*
D03*
X946404Y1006856D02*
D03*
X732028Y974344D02*
D03*
X794004Y877570D02*
D03*
X745490Y941832D02*
D03*
X790448Y912876D02*
D03*
X838962Y393954D02*
D03*
X862838Y512572D02*
D03*
X1167130Y904494D02*
D03*
X1121156Y773176D02*
D03*
X1214882Y1006856D02*
D03*
X1215136Y929132D02*
D03*
X1195324Y935228D02*
D03*
X1200150Y989584D02*
D03*
X720090Y457200D02*
D03*
X762000Y426720D02*
D03*
X736600Y435610D02*
D03*
D58*
X574040Y972820D02*
D03*
X519430Y989330D02*
D03*
X449580Y975360D02*
D03*
X496570Y1019810D02*
D03*
X482600Y1036320D02*
D03*
X775970Y839470D02*
D03*
X744220Y880110D02*
D03*
X741680Y920750D02*
D03*
X464820Y1050290D02*
D03*
X689610Y855980D02*
D03*
X685800Y828040D02*
D03*
X687070Y773430D02*
D03*
X673100Y759460D02*
D03*
X676910Y600710D02*
D03*
X575310Y722630D02*
D03*
X562610Y666750D02*
D03*
Y571500D02*
D03*
Y603250D02*
D03*
Y636270D02*
D03*
X683260Y459740D02*
D03*
X561340Y476250D02*
D03*
Y370840D02*
D03*
Y407670D02*
D03*
Y441960D02*
D03*
X662940Y505460D02*
D03*
X1564640Y535940D02*
D03*
X1595120Y812800D02*
D03*
M02*
