M48
;Layer_Color=9474304
;FILE_FORMAT=4:4
METRIC
;TYPE=PLATED
T1F00S00C0.5999
T2F00S00C0.7112
T3F00S00C0.9144
T4F00S00C1.2000
T5F00S00C1.3208
T6F00S00C1.6256
T7F00S00C3.2512
T8F00S00C3.5000
T9F00S00C4.2000
%
T01
X00663448Y00371856
X00722122Y00370586
X00717550Y00393192
X00711200Y00343662
X00812927Y00352298
X00818642Y00393192
X00838962Y00393954
X00846582Y00380492
X00864616Y00327660
X00939546Y00335788
X00975106Y00334518
X01022096Y00335026
X01040638Y00358394
X01275080Y00388620
X01481836Y00378968
X01321308Y00408178
X01243584Y00765048
X01121156Y00773176
X01103376Y00774446
X01088136Y00756412
X00940308Y00763016
X00946912Y00723138
X00901700Y00711708
X00901954Y00673100
X00902208Y00634492
X00901700Y00594360
X00902208Y00554990
X00941832Y00561340
X00934720Y00536956
X00976376Y00528574
X00950722Y00597916
X00933450Y00644398
X00988568Y00633984
X00979678Y00692404
X00901700Y00750570
Y00789686
X00812800Y00753364
X00803148Y00678688
X00797052Y00565150
X00798322Y00543052
X00828294Y00549656
X00846074Y00530606
X00862838Y00512572
X00863854Y00472948
X00899922Y00508762
X01006348Y00460756
X01063244Y00486918
X00788924Y00458470
X00771906Y00465836
X00762000Y00426720
X00736600Y00435610
X00720090Y00457200
X00732536Y00573024
X00756666Y00614172
X00777240Y00709422
X00767334Y00726948
X00792226Y00743712
X00789432Y00779018
X00728726
X00752856Y00793750
X00790956Y00800100
X00792480Y00821944
X00792988Y00847344
X00753110Y00862838
X00733552Y00866140
X00762254Y00895096
X00790448Y00912876
X00745490Y00941832
X00732028Y00974344
X00794004Y00877570
X00916432Y00877316
X00902716Y00911352
X00903224Y00951992
X00929894Y00959104
X00937768Y00937768
X00950976Y00923544
X00956564Y00893318
X00952246Y00832104
X00951484Y00805688
X00902208Y00829310
X00902970Y00995426
X00902208Y01044702
X00946404Y01006856
X00945134Y00980694
X00969772Y01019810
X00975614Y01054862
X01009904Y01059180
X01042416Y01011936
X01073150
X01088898Y01019810
X01104900Y01011428
X01137666Y01014222
X01166114Y01006348
X01163320Y01050290
X01176020Y00935990
X01167130Y00904494
X01152398Y00913638
X01138428Y00914400
X01103884Y00913384
X01075436Y00939038
Y00956310
X01089152Y00987044
X01111504Y00843026
X01111758Y00798068
X01071245Y00796671
X01071499Y00816610
X01210056Y00832104
X01221740Y00863600
X01227328Y00915416
X01215136Y00929132
X01195324Y00935228
X01200150Y00989584
X01214882Y01006856
X01242060Y01054862
X01273810Y01054354
X01388110Y00960882
X01281938Y00852678
X01281684Y00833374
X01253998Y00819404
T02
X00561340Y00370840
X01564640Y00535940
X00662940Y00505460
X00683260Y00459740
X00561340Y00476250
Y00441960
Y00407670
X00562610Y00571500
Y00603250
Y00636270
Y00666750
X00575310Y00722630
X00673100Y00759460
X00687070Y00773430
X00676910Y00600710
X00685800Y00828040
X00689610Y00855980
X00744220Y00880110
X00741680Y00920750
X00775970Y00839470
X00574040Y00972820
X00519430Y00989330
X00496570Y01019810
X00482600Y01036320
X00464820Y01050290
X00449580Y00975360
X01595120Y00812800
T03
X01507490Y00557530
Y00582930
Y00608330
Y00633730
X01532890Y00621030
Y00595630
Y00570230
Y00544830
Y00748030
Y00773430
X01507490Y00760730
Y00786130
Y00811530
Y00836930
X01532890Y00824230
Y00798830
T04
X00422910Y00392060
X00452910
Y00414060
Y00436060
Y00458060
Y00480060
Y00502060
Y00524060
Y00546060
Y00568060
Y00590060
Y00612060
Y00634060
X00422910
Y00612060
Y00590060
Y00568060
Y00546060
Y00524060
Y00502060
Y00480060
Y00458060
Y00436060
Y00414060
X00421760Y00791530
X00451760
Y00813530
Y00835530
Y00857530
Y00879530
Y00901530
Y00923530
Y00945530
X00421760
Y00923530
Y00901530
Y00879530
Y00857530
Y00835530
Y00813530
T05
X00679450Y00323342
X00735584Y00339852
X01035050Y00396748
X01107186Y00283718
X01463802Y00503428
X01464564Y00544068
X00882904Y00437896
X00648970Y00398780
X01447546Y00907542
X01448562Y01021334
T06
X01648460Y00511810
Y00666750
Y00715010
Y00869950
T07
X01604010Y00530860
Y00647700
Y00734060
Y00850900
T08
X00366910Y00399060
Y00627060
X00365760Y00798530
Y00938530
T09
X00303530Y00303530
X01658620Y00299720
X00302260Y01065530
X01659890Y01069340
M30
