G04 Layer_Physical_Order=1*
G04 Layer_Color=255*
%FSLAX44Y44*%
%MOMM*%
G71*
G01*
G75*
%ADD10R,1.8001X3.1999*%
%ADD11R,1.4001X1.4001*%
%ADD12R,1.5999X0.8001*%
%ADD13R,3.0000X2.1001*%
%ADD14R,2.0000X0.8999*%
%ADD15R,1.9050X1.0160*%
%ADD16R,1.5001X1.0000*%
%ADD17R,1.0500X0.4501*%
%ADD18R,1.2200X0.6200*%
%ADD19R,1.2499X0.3000*%
%ADD20R,1.1001X1.0000*%
%ADD21R,1.0000X1.1001*%
%ADD22R,3.1999X1.8001*%
%ADD23R,2.2352X1.2192*%
%ADD24R,2.1999X3.5999*%
%ADD25R,1.4001X1.0000*%
%ADD26R,0.6604X2.0320*%
%ADD27R,1.1999X1.1999*%
%ADD28R,3.8999X2.0000*%
%ADD29R,1.4001X1.4001*%
%ADD30R,1.2200X0.9101*%
%ADD31R,3.8001X2.8001*%
%ADD32R,2.8001X3.8001*%
%ADD33R,1.8001X1.5999*%
%ADD34R,2.8001X2.4001*%
%ADD35R,1.5999X1.8001*%
%ADD36R,1.1001X1.0000*%
%ADD37R,1.0000X1.1001*%
%ADD38R,1.1999X1.1999*%
%ADD39C,0.3048*%
%ADD40C,0.4064*%
%ADD41C,0.5000*%
%ADD42C,0.2540*%
%ADD43C,0.8128*%
%ADD44C,1.2700*%
%ADD45C,0.6096*%
%ADD46C,0.4060*%
%ADD47C,1.0000*%
%ADD48C,4.0000*%
%ADD49C,1.5240*%
%ADD50R,1.5240X1.5240*%
%ADD51P,2.2627X8X22.5*%
%ADD52R,1.3716X1.3716*%
%ADD53C,1.3716*%
%ADD54C,2.4384*%
%ADD55C,3.2512*%
%ADD56C,8.0000*%
%ADD57C,1.0064*%
%ADD58C,1.2700*%
D10*
X713679Y753110D02*
D03*
X769681D02*
D03*
X713679Y808482D02*
D03*
X769681D02*
D03*
X713171Y869442D02*
D03*
X769173D02*
D03*
X713171Y928116D02*
D03*
X769173D02*
D03*
X713171Y988060D02*
D03*
X769173D02*
D03*
X713679Y1051560D02*
D03*
X769681D02*
D03*
X599318Y1033780D02*
D03*
X655320D02*
D03*
X599379Y974090D02*
D03*
X655381D02*
D03*
X599379Y914400D02*
D03*
X655381D02*
D03*
X599379Y849630D02*
D03*
X655381D02*
D03*
X599379Y784860D02*
D03*
X655381D02*
D03*
X599379Y722630D02*
D03*
X655381D02*
D03*
D11*
X1063244Y395173D02*
D03*
Y357175D02*
D03*
X952500Y335483D02*
D03*
Y297485D02*
D03*
D12*
X1499283Y385110D02*
D03*
Y397609D02*
D03*
Y410111D02*
D03*
Y422610D02*
D03*
D13*
X1528285Y359611D02*
D03*
Y448109D02*
D03*
D14*
X1199253Y439189D02*
D03*
Y414289D02*
D03*
Y389390D02*
D03*
Y364490D02*
D03*
X1117854Y439189D02*
D03*
Y414289D02*
D03*
Y389390D02*
D03*
Y364490D02*
D03*
D15*
X1448816Y936498D02*
D03*
Y961898D02*
D03*
Y987298D02*
D03*
X1532636D02*
D03*
Y961898D02*
D03*
Y936498D02*
D03*
D16*
X1315720Y977900D02*
D03*
X1361440D02*
D03*
Y947420D02*
D03*
X1315720D02*
D03*
D17*
X749562Y370187D02*
D03*
Y376687D02*
D03*
Y383187D02*
D03*
Y389687D02*
D03*
Y396189D02*
D03*
Y402689D02*
D03*
Y409189D02*
D03*
Y415689D02*
D03*
X804918D02*
D03*
Y409189D02*
D03*
Y402689D02*
D03*
Y396189D02*
D03*
Y389687D02*
D03*
Y383187D02*
D03*
Y376687D02*
D03*
Y370187D02*
D03*
D18*
X1331930Y388214D02*
D03*
Y378714D02*
D03*
Y369214D02*
D03*
X1357930D02*
D03*
Y388214D02*
D03*
D19*
X1121491Y989035D02*
D03*
Y984037D02*
D03*
X1053493Y884037D02*
D03*
Y889036D02*
D03*
X1121491Y999035D02*
D03*
Y994037D02*
D03*
Y969035D02*
D03*
Y964037D02*
D03*
Y979035D02*
D03*
Y974037D02*
D03*
Y949035D02*
D03*
Y944037D02*
D03*
Y959035D02*
D03*
Y954037D02*
D03*
Y929035D02*
D03*
Y924037D02*
D03*
Y939035D02*
D03*
Y934037D02*
D03*
Y909035D02*
D03*
Y904037D02*
D03*
Y919035D02*
D03*
Y914037D02*
D03*
Y889036D02*
D03*
Y884037D02*
D03*
Y899035D02*
D03*
Y894037D02*
D03*
X1053493D02*
D03*
Y899035D02*
D03*
Y904037D02*
D03*
Y909035D02*
D03*
Y914037D02*
D03*
Y919035D02*
D03*
Y924037D02*
D03*
Y929035D02*
D03*
Y934037D02*
D03*
Y939035D02*
D03*
Y944037D02*
D03*
Y949035D02*
D03*
Y954037D02*
D03*
Y959035D02*
D03*
Y964037D02*
D03*
Y969035D02*
D03*
Y974037D02*
D03*
Y979035D02*
D03*
Y984037D02*
D03*
Y989035D02*
D03*
Y994037D02*
D03*
Y999035D02*
D03*
D20*
X1222375Y886323D02*
D03*
Y869325D02*
D03*
X1238504Y971159D02*
D03*
Y954161D02*
D03*
X1042416Y1011819D02*
D03*
Y1028817D02*
D03*
X1073150Y1012327D02*
D03*
Y1029325D02*
D03*
X1104900Y1011565D02*
D03*
Y1028563D02*
D03*
X1137666Y1015375D02*
D03*
Y1032373D02*
D03*
X1042416Y1041791D02*
D03*
Y1058789D02*
D03*
X1073150Y1042299D02*
D03*
Y1059297D02*
D03*
X1137666Y1045601D02*
D03*
Y1062599D02*
D03*
X1104900Y1041537D02*
D03*
Y1058535D02*
D03*
X769620Y591429D02*
D03*
Y574431D02*
D03*
X793750Y591429D02*
D03*
Y574431D02*
D03*
X1162050Y973973D02*
D03*
Y990971D02*
D03*
X1183132D02*
D03*
Y973973D02*
D03*
X837692Y346847D02*
D03*
Y363845D02*
D03*
X1152398Y851037D02*
D03*
Y868035D02*
D03*
X1175258Y851037D02*
D03*
Y868035D02*
D03*
X1292606Y396357D02*
D03*
Y379359D02*
D03*
X1254506Y421503D02*
D03*
Y404505D02*
D03*
X1253744Y374513D02*
D03*
Y357515D02*
D03*
D21*
X546471Y667512D02*
D03*
X529473D02*
D03*
X546471Y635762D02*
D03*
X529473D02*
D03*
X546979Y603250D02*
D03*
X529981D02*
D03*
X546979Y571500D02*
D03*
X529981D02*
D03*
X546588Y476250D02*
D03*
X529590D02*
D03*
X546588Y441960D02*
D03*
X529590D02*
D03*
X546979Y407670D02*
D03*
X529981D02*
D03*
X546979Y373380D02*
D03*
X529981D02*
D03*
X881751Y385572D02*
D03*
X864753D02*
D03*
X702300Y382905D02*
D03*
X685302D02*
D03*
X881497Y410083D02*
D03*
X864499D02*
D03*
X702046Y404241D02*
D03*
X685048D02*
D03*
X782945Y445262D02*
D03*
X765947D02*
D03*
X850001Y609219D02*
D03*
X833003D02*
D03*
X850382Y647700D02*
D03*
X833384D02*
D03*
X850128Y686562D02*
D03*
X833130D02*
D03*
X850382Y725678D02*
D03*
X833384D02*
D03*
X850382Y764159D02*
D03*
X833384D02*
D03*
X849747Y803148D02*
D03*
X832749D02*
D03*
X850001Y842772D02*
D03*
X833003D02*
D03*
X850128Y881634D02*
D03*
X833130D02*
D03*
X850255Y920115D02*
D03*
X833257D02*
D03*
X850509Y959993D02*
D03*
X833511D02*
D03*
X850509Y999109D02*
D03*
X833511D02*
D03*
X850255Y1037844D02*
D03*
X833257D02*
D03*
X882767Y609219D02*
D03*
X865769D02*
D03*
X882767Y647700D02*
D03*
X865769D02*
D03*
X882767Y686562D02*
D03*
X865769D02*
D03*
X883021Y725678D02*
D03*
X866023D02*
D03*
X882640Y764159D02*
D03*
X865642D02*
D03*
X882005Y803148D02*
D03*
X865007D02*
D03*
X882259Y842772D02*
D03*
X865261D02*
D03*
X882386Y881634D02*
D03*
X865388D02*
D03*
X882513Y919480D02*
D03*
X865515D02*
D03*
X882513Y959993D02*
D03*
X865515D02*
D03*
X882513Y999109D02*
D03*
X865515D02*
D03*
X1292743Y455676D02*
D03*
X1309741D02*
D03*
X882259Y1037844D02*
D03*
X865261D02*
D03*
D22*
X952754Y374843D02*
D03*
Y430845D02*
D03*
D23*
X1210056Y816610D02*
D03*
Y793496D02*
D03*
Y770382D02*
D03*
D24*
X1272035Y793496D02*
D03*
D25*
X814276Y614197D02*
D03*
Y633197D02*
D03*
X792274Y623697D02*
D03*
X814022Y652932D02*
D03*
Y671932D02*
D03*
X792020Y662432D02*
D03*
X814657Y691286D02*
D03*
Y710286D02*
D03*
X792655Y700786D02*
D03*
X814911Y730148D02*
D03*
Y749148D02*
D03*
X792909Y739648D02*
D03*
X814911Y769264D02*
D03*
Y788264D02*
D03*
X792909Y778764D02*
D03*
X814911Y808507D02*
D03*
Y827507D02*
D03*
X792909Y818007D02*
D03*
X815546Y847623D02*
D03*
Y866623D02*
D03*
X793544Y857123D02*
D03*
X816181Y886485D02*
D03*
Y905485D02*
D03*
X794179Y895985D02*
D03*
X816181Y925347D02*
D03*
Y944347D02*
D03*
X794179Y934847D02*
D03*
X816181Y965098D02*
D03*
Y984098D02*
D03*
X794179Y974598D02*
D03*
X816181Y1003960D02*
D03*
Y1022960D02*
D03*
X794179Y1013460D02*
D03*
X816181Y1042187D02*
D03*
Y1061187D02*
D03*
X794179Y1051687D02*
D03*
D26*
X694563Y490220D02*
D03*
Y551688D02*
D03*
X707263Y490220D02*
D03*
X719963D02*
D03*
X707263Y551688D02*
D03*
X719963D02*
D03*
X732663Y490220D02*
D03*
Y551688D02*
D03*
X745363Y490220D02*
D03*
Y551688D02*
D03*
X758063Y490220D02*
D03*
X770763D02*
D03*
X758063Y551688D02*
D03*
X770763D02*
D03*
X783463Y490220D02*
D03*
Y551688D02*
D03*
D27*
X1202436Y887181D02*
D03*
Y866181D02*
D03*
D28*
X1465118Y419608D02*
D03*
Y462107D02*
D03*
D29*
X1077163Y437642D02*
D03*
X1039165D02*
D03*
D30*
X962279Y528071D02*
D03*
Y560573D02*
D03*
X935482Y573283D02*
D03*
Y605785D02*
D03*
X961390Y607065D02*
D03*
Y639567D02*
D03*
X933450Y654436D02*
D03*
Y686938D02*
D03*
X960374Y686059D02*
D03*
Y718561D02*
D03*
X934339Y714761D02*
D03*
Y747263D02*
D03*
X956945Y756544D02*
D03*
Y789046D02*
D03*
X932053Y806074D02*
D03*
Y838576D02*
D03*
X956818Y849635D02*
D03*
Y882137D02*
D03*
X932688Y891164D02*
D03*
Y923666D02*
D03*
X954278Y936376D02*
D03*
Y968878D02*
D03*
X930402Y976508D02*
D03*
Y1009010D02*
D03*
X953516Y1023625D02*
D03*
Y1056127D02*
D03*
D31*
X1410208Y403436D02*
D03*
Y477436D02*
D03*
D32*
X1267798Y295910D02*
D03*
X1341798D02*
D03*
D33*
X1384808Y296896D02*
D03*
Y324897D02*
D03*
X1262380Y844012D02*
D03*
Y872012D02*
D03*
X923036Y335056D02*
D03*
Y307055D02*
D03*
X1273810Y1042954D02*
D03*
Y1014954D02*
D03*
X1241806Y1043463D02*
D03*
Y1015462D02*
D03*
X663448Y521813D02*
D03*
Y549813D02*
D03*
X1002538Y334548D02*
D03*
Y306548D02*
D03*
D34*
X1435100Y285237D02*
D03*
Y348239D02*
D03*
X1001522Y367787D02*
D03*
Y430789D02*
D03*
D35*
X1424971Y961898D02*
D03*
X1396969D02*
D03*
X791621Y352171D02*
D03*
X763621D02*
D03*
X1321532Y422402D02*
D03*
X1349532D02*
D03*
D36*
X1095131Y796544D02*
D03*
X1112129D02*
D03*
X1094877Y816864D02*
D03*
X1111875D02*
D03*
D37*
X901700Y554111D02*
D03*
Y571109D02*
D03*
X901954Y594243D02*
D03*
Y611241D02*
D03*
X902208Y634121D02*
D03*
Y651119D02*
D03*
X901954Y672983D02*
D03*
Y689981D02*
D03*
X901700Y711718D02*
D03*
Y728716D02*
D03*
Y750453D02*
D03*
Y767451D02*
D03*
Y789696D02*
D03*
Y806694D02*
D03*
X902208Y829574D02*
D03*
Y846572D02*
D03*
Y1044712D02*
D03*
Y1061710D02*
D03*
Y869960D02*
D03*
Y886958D02*
D03*
X902716Y911362D02*
D03*
Y928360D02*
D03*
Y952002D02*
D03*
Y969000D02*
D03*
Y995309D02*
D03*
Y1012307D02*
D03*
D38*
X1274404Y454406D02*
D03*
X1253404D02*
D03*
D39*
X1059180Y821944D02*
X1067054Y829818D01*
X1059180Y620776D02*
Y821944D01*
X988060Y549656D02*
X1059180Y620776D01*
X999289Y974037D02*
X1053493D01*
X995934Y977392D02*
X999289Y974037D01*
X990199Y964037D02*
X1053493D01*
X962660Y936498D02*
X990199Y964037D01*
X954400Y936498D02*
X962660D01*
X954278Y936376D02*
X954400Y936498D01*
X956564Y893318D02*
Y903478D01*
X906414Y891164D02*
X932688D01*
X902208Y886958D02*
X906414Y891164D01*
X882386Y881634D02*
X882396D01*
X887476Y886714D01*
X901964D01*
X902208Y886958D01*
X1007123Y954037D02*
X1053493D01*
X956564Y903478D02*
X1007123Y954037D01*
X932053Y838576D02*
X945774D01*
X952246Y832104D01*
X945774Y838576D02*
Y838594D01*
X956818Y849635D01*
X1014141Y944037D02*
X1053493D01*
X973328Y903224D02*
X1014141Y944037D01*
X932053Y806074D02*
X951098D01*
X951484Y805688D01*
X983488Y827278D02*
Y898906D01*
X961644Y805434D02*
X983488Y827278D01*
X951738Y805434D02*
X961644D01*
X951484Y805688D02*
X951738Y805434D01*
X956945Y789046D02*
Y800227D01*
X951484Y805688D02*
X956945Y800227D01*
X902320Y806074D02*
X932053D01*
X901700Y806694D02*
X902320Y806074D01*
X1018619Y934037D02*
X1053493D01*
X983488Y898906D02*
X1018619Y934037D01*
X946780Y756544D02*
X956945D01*
X940308Y763016D02*
X946780Y756544D01*
X885934Y767451D02*
X901700D01*
X882640Y764159D02*
X885934Y767451D01*
X934217Y747263D02*
X934339D01*
X914146Y767334D02*
X934217Y747263D01*
X901817Y767334D02*
X914146D01*
X901700Y767451D02*
X901817Y767334D01*
X934339Y747263D02*
X947661D01*
X956945Y756544D01*
X994664Y793496D02*
Y894334D01*
X964946Y763778D02*
X994664Y793496D01*
X964179Y763778D02*
X964946D01*
X956945Y756544D02*
X964179Y763778D01*
X1024367Y924037D02*
X1053493D01*
X994664Y894334D02*
X1024367Y924037D01*
X934339Y714761D02*
X956577D01*
X960374Y718561D01*
X930651Y714761D02*
X934339D01*
X914400Y731012D02*
X930651Y714761D01*
X903468Y731012D02*
X914400D01*
X901700Y728716D02*
X903468Y731012D01*
X942716Y723138D02*
X946912D01*
X934339Y714761D02*
X942716Y723138D01*
X1005840Y764027D02*
Y889508D01*
X960374Y718561D02*
X1005840Y764027D01*
X1030369Y914037D02*
X1053493D01*
X1005840Y889508D02*
X1030369Y914037D01*
X1037641Y904037D02*
X1053493D01*
X1018032Y884428D02*
X1037641Y904037D01*
X1018032Y721360D02*
Y884428D01*
X982980Y686308D02*
X1018032Y721360D01*
X979678Y686308D02*
X982980D01*
X965454D02*
X979678D01*
X960623D02*
X965454D01*
X960374Y686059D02*
X960623Y686308D01*
X979678D02*
Y692404D01*
X933450Y686938D02*
X964824D01*
X965454Y686308D01*
X1042881Y894037D02*
X1053493D01*
X1042881Y893783D02*
Y894037D01*
X1029970Y880872D02*
X1042881Y893783D01*
X1029970Y690880D02*
Y880872D01*
X978408Y639318D02*
X1029970Y690880D01*
X961639Y639318D02*
X978408D01*
X961390Y639567D02*
X961639Y639318D01*
X966973Y633984D02*
X988568D01*
X961390Y639567D02*
X966973Y633984D01*
X1049391Y884037D02*
X1053493D01*
X1040892Y875538D02*
X1049391Y884037D01*
X1040892Y648970D02*
Y875538D01*
X1003554Y611632D02*
X1040892Y648970D01*
X965957Y611632D02*
X1003554D01*
X961390Y607065D02*
X965957Y611632D01*
X950722Y597916D02*
Y603255D01*
X946912Y607065D02*
X950722Y603255D01*
X1030425Y999035D02*
X1053493D01*
X1021080Y1008380D02*
X1030425Y999035D01*
X1021080Y1008380D02*
Y1054608D01*
X1009904Y1059180D02*
X1016508D01*
X1021080Y1054608D01*
X1096145Y994037D02*
X1121491D01*
X1089152Y987044D02*
X1096145Y994037D01*
X1073150Y1029325D02*
X1079383D01*
X1088898Y1019810D01*
X1121491Y984037D02*
X1142787D01*
X1150112Y991362D01*
Y1025144D01*
X1145540Y1029716D02*
X1150112Y1025144D01*
X1138311Y1029716D02*
X1145540D01*
X1137666Y1032373D02*
X1138311Y1029716D01*
X1137666Y1032373D02*
Y1045601D01*
X528203Y668782D02*
X528457Y668528D01*
X745363Y490220D02*
X745490Y490093D01*
X749562Y370187D02*
Y376687D01*
X1015279Y989035D02*
X1053493D01*
X1004316Y999998D02*
X1015279Y989035D01*
X1004316Y999998D02*
Y1015492D01*
X973099Y969035D02*
X1053493D01*
X959358Y955294D02*
X973099Y969035D01*
X950976Y910590D02*
X955548D01*
X1003993Y959035D02*
X1053493D01*
X955548Y910590D02*
X1003993Y959035D01*
X957834Y865886D02*
X961390D01*
X967232Y871728D01*
Y905764D01*
X1010503Y949035D02*
X1053493D01*
X967232Y905764D02*
X1010503Y949035D01*
X978408Y831088D02*
Y900938D01*
X965200Y817880D02*
X978408Y831088D01*
X1016506Y939035D02*
X1053493D01*
X978408Y900938D02*
X1016506Y939035D01*
X989076Y796290D02*
Y896620D01*
X968248Y775462D02*
X989076Y796290D01*
X929894Y775462D02*
X968248D01*
X926592Y778764D02*
X929894Y775462D01*
X1021491Y929035D02*
X1053493D01*
X989076Y896620D02*
X1021491Y929035D01*
X999998Y778002D02*
Y891794D01*
X960120Y738124D02*
X999998Y778002D01*
X1027240Y919035D02*
X1053493D01*
X999998Y891794D02*
X1027240Y919035D01*
X1034004Y909035D02*
X1053493D01*
X1012190Y887222D02*
X1034004Y909035D01*
X1012190Y743458D02*
Y887222D01*
X1006094Y737362D02*
X1012190Y743458D01*
X1051560Y877570D02*
X1101090D01*
X1046734Y872744D02*
X1051560Y877570D01*
X1046734Y641604D02*
Y872744D01*
X1041146Y636016D02*
X1046734Y641604D01*
X1068779Y999035D02*
X1121491D01*
X1060704Y1007110D02*
X1068779Y999035D01*
X1060704Y1007110D02*
Y1018032D01*
X1053592Y1025144D02*
X1060704Y1018032D01*
X1121491Y989035D02*
X1134323D01*
X1138936Y993648D01*
Y998474D01*
X1134110Y1003300D02*
X1138936Y998474D01*
X1130554Y1003300D02*
X1134110D01*
X1122426Y1011428D02*
X1130554Y1003300D01*
X1122426Y1011428D02*
Y1025144D01*
X1118870Y1028700D02*
X1122426Y1025144D01*
X1105037Y1028700D02*
X1118870D01*
X1104900Y1028563D02*
X1105037Y1028700D01*
X1121491Y949035D02*
X1213013D01*
X1210056Y816610D02*
Y832104D01*
X1213013Y949035D02*
X1224280Y937768D01*
X1248664D01*
X1285494Y900938D01*
Y856234D02*
Y900938D01*
X1281938Y852678D02*
X1285494Y856234D01*
X902208Y555000D02*
X902980D01*
X902208Y554990D02*
X902980Y555000D01*
X901837Y593989D02*
X901954Y594243D01*
X901700Y594360D02*
X901837Y593989D01*
X901309Y634375D02*
X902208Y634121D01*
X901309Y634375D02*
X902208Y634492D01*
X901563Y673237D02*
X901954Y672983D01*
X901563Y673237D02*
X901954Y673100D01*
X900166Y711464D02*
X901700Y711718D01*
X900166Y711464D02*
X901700Y711708D01*
X901055Y750453D02*
X901700D01*
X901055D02*
X901700Y750570D01*
X900694Y789950D02*
X901700Y789696D01*
X900694Y789950D02*
X901700Y789686D01*
X902208Y829574D02*
X902960Y828812D01*
X902208Y829310D02*
X902960Y828812D01*
X902208Y869960D02*
X909076D01*
X916432Y877316D01*
X902716Y911362D02*
X905266D01*
X902716Y911352D02*
X905266Y911362D01*
X902716Y952002D02*
X902980Y951748D01*
X903224Y951992D01*
X1137021Y1012073D02*
X1137666Y1015375D01*
X1137021Y1012073D02*
X1137666Y1014222D01*
X962279Y528071D02*
X975873D01*
X976376Y528574D01*
X864753Y329809D02*
Y385572D01*
Y329809D02*
X864870Y329692D01*
X863346D02*
X864870D01*
X860806Y327152D02*
X863346Y329692D01*
X860806Y327152D02*
X864108D01*
X864616Y327660D01*
X1097788Y959035D02*
X1121491D01*
X1078161D02*
X1097788D01*
X1075436Y956310D02*
X1078161Y959035D01*
X1262014Y870854D02*
X1262380Y872012D01*
X1121491Y944037D02*
X1165687D01*
X1105662Y1059297D02*
X1134872D01*
X1137666Y1062599D01*
X1073912Y1058535D02*
X1154567D01*
X1157478Y1055624D01*
X1157986D01*
X1163320Y1050290D01*
X1165687Y944037D02*
X1171321Y938403D01*
X1121491Y889036D02*
X1131534D01*
X1134872Y885698D01*
Y880618D02*
Y885698D01*
X1125474Y871220D02*
X1134872Y880618D01*
X1056132Y871220D02*
X1125474D01*
X1052830Y867918D02*
X1056132Y871220D01*
X1052830Y636016D02*
Y867918D01*
X976884Y560070D02*
X1052830Y636016D01*
X962782Y560070D02*
X976884D01*
X962279Y560573D02*
X962782Y560070D01*
X829818Y881634D02*
X833130D01*
X816181Y886485D02*
X816460Y886206D01*
X1121491Y969035D02*
X1141705D01*
X1146048Y964692D01*
X1211580D01*
X1217930Y971042D01*
X1238387D01*
X1238504Y971159D01*
X1137666Y958850D02*
X1220216D01*
X1132586Y963930D02*
X1137666Y958850D01*
X1121598Y963930D02*
X1132586D01*
X1121491Y964037D02*
X1121598Y963930D01*
X1220216Y958850D02*
X1225296Y953770D01*
X1238113D01*
X1238504Y954161D01*
X1175258Y837692D02*
Y851037D01*
X863854Y438912D02*
Y472948D01*
Y410728D02*
Y438912D01*
Y410728D02*
X864499Y410083D01*
X1140968Y803402D02*
X1175258Y837692D01*
X1140968Y609092D02*
Y803402D01*
X1035050Y503174D02*
X1140968Y609092D01*
X905002Y503174D02*
X1035050D01*
X905002D02*
Y503682D01*
X899922Y508762D02*
X905002Y503682D01*
X1152398Y844296D02*
Y851037D01*
X1137920Y829818D02*
X1152398Y844296D01*
X1067054Y829818D02*
X1137920D01*
X920242Y549656D02*
X988060D01*
X912368Y541782D02*
X920242Y549656D01*
X836168Y541782D02*
X912368D01*
X828294Y549656D02*
X836168Y541782D01*
X1121491Y894037D02*
X1143043D01*
X1152398Y884682D01*
Y868035D02*
Y884682D01*
X1129401Y868035D02*
X1152398D01*
X1111504Y850138D02*
X1129401Y868035D01*
X1111504Y843026D02*
Y850138D01*
X1111758Y798068D02*
X1112266Y798693D01*
X1112129Y796544D02*
X1112266Y798693D01*
X1121491Y899035D02*
X1147188D01*
X1161288Y884936D01*
X1170940D01*
X1175004Y880872D01*
Y868289D02*
Y880872D01*
Y868289D02*
X1175258Y868035D01*
X1111875Y816864D02*
X1136904D01*
X1163574Y843534D01*
Y866648D01*
X1164590Y867664D01*
X1174887D01*
X1175258Y868035D01*
X1121491Y919035D02*
X1133792D01*
X1138428Y914400D01*
X1088136Y597916D02*
Y756412D01*
X789559Y572643D02*
Y575066D01*
Y572643D02*
X797052Y565150D01*
X934720Y536956D02*
X944626D01*
X947928Y540258D01*
X1030478D01*
X1088136Y597916D01*
X1103376Y591566D02*
Y774446D01*
X1028446Y516636D02*
X1103376Y591566D01*
X933704Y516636D02*
X1028446D01*
X917194Y533146D02*
X933704Y516636D01*
X848614Y533146D02*
X917194D01*
X846074Y530606D02*
X848614Y533146D01*
X798068Y543052D02*
X798322D01*
X782828Y527812D02*
X798068Y543052D01*
X776224Y527812D02*
X782828D01*
X770636Y533400D02*
X776224Y527812D01*
X770636Y533400D02*
Y551561D01*
X770763Y551688D01*
X1152398Y913638D02*
Y920750D01*
X1149096Y924052D02*
X1152398Y920750D01*
X1121509Y924052D02*
X1149096D01*
X1121491Y924037D02*
X1121509Y924052D01*
X1121491Y979035D02*
X1150115D01*
X1162050Y990971D01*
X1121491Y974037D02*
X1161986D01*
X1162050Y973973D01*
X1183132D01*
X1089155Y939035D02*
X1121491D01*
X1075436Y939038D02*
X1089155Y939035D01*
X1121491Y954037D02*
X1216647D01*
X1226566Y944118D01*
X1250442D01*
X1258570Y935990D01*
X1258824D01*
X1291590Y903224D01*
Y822452D02*
Y903224D01*
X1287272Y818134D02*
X1291590Y822452D01*
X1255268Y818134D02*
X1287272D01*
X1253998Y819404D02*
X1255268Y818134D01*
X814911Y788264D02*
X840384D01*
X849376Y779272D01*
X862076D01*
X865378Y775970D01*
Y765048D02*
Y775970D01*
Y764423D02*
Y765048D01*
Y764423D02*
X865642Y764159D01*
X1006483Y979035D02*
X1053493D01*
X999490Y986028D02*
X1006483Y979035D01*
X1010158Y1021080D02*
Y1033018D01*
X1009650Y1033526D02*
X1010158Y1033018D01*
X1020183Y994037D02*
X1053493D01*
X1011174Y1003046D02*
X1020183Y994037D01*
X1011174Y1003046D02*
Y1020064D01*
X1010158Y1021080D02*
X1011174Y1020064D01*
X1011641Y984037D02*
X1053493D01*
X994410Y1001268D02*
X1011641Y984037D01*
X994410Y1001268D02*
Y1011174D01*
X1040259Y899035D02*
X1053493D01*
X1024128Y882904D02*
X1040259Y899035D01*
X1024128Y701548D02*
Y882904D01*
X1022604Y700024D02*
X1024128Y701548D01*
X1022604Y699770D02*
Y700024D01*
X995680Y672846D02*
X1022604Y699770D01*
X1046008Y889036D02*
X1053493D01*
X1035304Y878332D02*
X1046008Y889036D01*
X1035304Y657860D02*
Y878332D01*
X1001014Y623570D02*
X1035304Y657860D01*
X1121491Y904037D02*
X1150061D01*
X1162050Y892048D01*
X1173734D01*
X1191260Y874522D01*
Y868172D02*
Y874522D01*
Y868172D02*
X1193292Y866140D01*
X1202395D01*
X1202436Y866181D01*
X1219667Y886493D02*
X1222375Y886323D01*
X1202436Y887181D02*
X1221519D01*
X1222375Y886323D01*
X816181Y905485D02*
X847369D01*
X851662Y901192D01*
X863854D01*
X865378Y899668D01*
Y881644D02*
Y899668D01*
Y881644D02*
X865388Y881634D01*
X862838Y512572D02*
X863092D01*
X872998Y522478D01*
X913130D01*
X925322Y510286D01*
X1032256D01*
X1112774Y590804D01*
Y762762D01*
X1121491Y929035D02*
X1154273D01*
X1165860Y917448D01*
X1166114D01*
X1165860Y905764D02*
Y917448D01*
Y905764D02*
X1167130Y904494D01*
X1116838Y768858D02*
X1121156Y773176D01*
X1116838Y766826D02*
Y768858D01*
X1112774Y762762D02*
X1116838Y766826D01*
X1121491Y934037D02*
X1160955D01*
Y933783D02*
Y934037D01*
Y933783D02*
X1169924Y924814D01*
X1187450D01*
X1195324Y932688D01*
Y935228D01*
X1200150Y989584D02*
X1205484D01*
X956818Y849635D02*
X960125D01*
X973328Y862838D01*
Y903224D01*
D40*
X1574038Y920242D02*
Y927862D01*
X1565402Y936498D02*
X1574038Y927862D01*
X1532636Y936498D02*
X1565402D01*
X1538986Y885190D02*
X1574038Y920242D01*
X1533398Y748030D02*
X1547876D01*
Y862584D02*
X1559560Y850900D01*
Y760984D02*
Y850900D01*
X1547876Y862584D02*
Y879602D01*
X1538986Y858774D02*
X1549400Y848360D01*
Y767080D02*
Y848360D01*
X1542796Y760476D02*
X1549400Y767080D01*
X1519936Y760476D02*
X1542796D01*
X789127Y389687D02*
X804918D01*
Y383187D02*
X828957D01*
X1220851Y865251D02*
X1222375Y869325D01*
X882513Y959993D02*
Y961253D01*
X891032Y969772D01*
X901944D01*
X902716Y969000D01*
X922894D01*
X930402Y976508D01*
X938035Y968878D02*
X954278D01*
X930402Y976508D02*
X938035Y968878D01*
X962792Y977392D02*
X995934D01*
X954278Y968878D02*
X962792Y977392D01*
X929894Y959104D02*
X938916Y968756D01*
X954278Y968878D01*
X940938Y936376D02*
X954278D01*
X937768Y937768D02*
X940938Y936376D01*
X882513Y919480D02*
Y922391D01*
X888238Y928116D01*
X902472D01*
X902716Y928360D01*
X925454Y923666D02*
X932688D01*
X921258Y927862D02*
X925454Y923666D01*
X903214Y927862D02*
X921258D01*
X902716Y928360D02*
X903214Y927862D01*
X932688Y923666D02*
Y932688D01*
X937768Y937768D01*
X882259Y842772D02*
X900186D01*
X902208Y846572D01*
X931042Y844164D02*
X932053Y838576D01*
X912368Y844296D02*
X931042Y844164D01*
X902706Y844296D02*
X912368D01*
X902208Y846572D02*
X902706Y844296D01*
X882005Y803148D02*
X886968D01*
X890016Y806196D01*
X901202D01*
X901700Y806694D01*
X883021Y725678D02*
X898662D01*
X901700Y728716D01*
X904999Y686938D02*
X933450D01*
X901954Y689981D02*
X904999Y686938D01*
X882767Y686562D02*
X898535D01*
X901954Y689981D01*
X882767Y647700D02*
X898789D01*
X902208Y651119D01*
X930133D01*
X933450Y654436D01*
Y644398D02*
Y654436D01*
Y644398D02*
X956559D01*
X961390Y639567D01*
X882767Y609219D02*
X899932D01*
X901954Y611241D01*
X907412Y605785D02*
X935482D01*
X901954Y611241D02*
X907412Y605785D01*
X946912Y607065D02*
X961390D01*
X936765D02*
X946912D01*
X935482Y605785D02*
X936765Y607065D01*
X778129Y623697D02*
X792274D01*
X755904Y645922D02*
X778129Y623697D01*
X755904Y645922D02*
Y683514D01*
X732790Y706628D02*
X755904Y683514D01*
X718881Y706628D02*
X732790D01*
X785368Y662432D02*
X792020D01*
X776732Y671068D02*
X785368Y662432D01*
X776732Y671068D02*
Y690118D01*
X785876Y700786D02*
X792655D01*
X777240Y709422D02*
X785876Y700786D01*
X792909Y739648D02*
Y743029D01*
X792226Y743712D02*
X792909Y743029D01*
X752856Y793750D02*
X754949D01*
X769681Y808482D01*
X768411Y1049274D02*
X791766D01*
X794179Y1051687D01*
X699770Y1019302D02*
X788337D01*
X794179Y1013460D01*
X769173Y988060D02*
X780717D01*
X794179Y974598D01*
X678942Y976437D02*
X697037Y958342D01*
X776224D01*
X793496Y941070D01*
Y935530D02*
Y941070D01*
Y935530D02*
X794179Y934847D01*
X785749Y895985D02*
X794179D01*
X769366Y912368D02*
X785749Y895985D01*
X769366Y912368D02*
Y927923D01*
X769173Y928116D02*
X769366Y927923D01*
X792988Y847344D02*
Y856567D01*
X793544Y857123D01*
X792909Y818007D02*
Y821515D01*
X792480Y821944D02*
X792909Y821515D01*
X752917Y869442D02*
X753110Y862838D01*
X752917Y869442D02*
X769173D01*
X789686Y778764D02*
X792909D01*
X789432Y779018D02*
X789686Y778764D01*
X545455Y636016D02*
X545963Y635508D01*
X662940Y371348D02*
X663448Y371856D01*
X823468Y363845D02*
X837692D01*
X811261D02*
X823468D01*
X804918Y370187D02*
X811261Y363845D01*
X663448Y366014D02*
Y371856D01*
Y366014D02*
X700151Y329311D01*
X707898Y321564D01*
X823214Y341884D02*
Y342138D01*
X824484Y343408D01*
Y362829D01*
X823468Y363845D02*
X824484Y362829D01*
X707898Y321564D02*
X802894D01*
X823214Y341884D01*
X679450Y323342D02*
X694182D01*
X700151Y329311D01*
X528457Y668528D02*
X528574Y668411D01*
X707263Y551688D02*
Y590677D01*
X758063Y551688D02*
X758698Y551053D01*
X758063Y551688D02*
Y612775D01*
X756666Y614172D02*
X758063Y612775D01*
X712470Y1033780D02*
X718566Y1027684D01*
X712470Y1033780D02*
Y1049213D01*
X712409Y1049274D02*
X712470Y1049213D01*
Y1065784D01*
X706120Y1072134D02*
X712470Y1065784D01*
X661924Y1072134D02*
X706120D01*
X816181Y1022960D02*
X847242D01*
X853440Y1016762D01*
X862584D01*
X865124Y1014222D01*
Y999500D02*
Y1014222D01*
Y999500D02*
X865515Y999109D01*
X718566Y1027684D02*
X811456D01*
X816181Y1022960D01*
Y984098D02*
X845972D01*
X852932Y977138D01*
X860552D01*
X865378Y972312D01*
Y960130D02*
Y972312D01*
Y960130D02*
X865515Y959993D01*
X687131Y1009650D02*
X778510D01*
X795782Y992378D01*
X807900D01*
X816181Y984098D01*
X814911Y827507D02*
X846099D01*
X850900Y822706D01*
X859282D01*
X865124Y816864D01*
Y803265D02*
Y816864D01*
X865007Y803148D02*
X865124Y803265D01*
X806503Y835914D02*
X814911Y827507D01*
Y749148D02*
X841908D01*
X845820Y745236D01*
X862838D01*
X866394Y741680D01*
Y726049D02*
Y741680D01*
X866023Y725678D02*
X866394Y726049D01*
X814911Y749148D02*
Y751253D01*
X812800Y753364D02*
X814911Y751253D01*
X713740Y795528D02*
Y808421D01*
X713679Y808482D02*
X713740Y808421D01*
X814657Y710286D02*
X845718D01*
X854456Y701548D01*
X862584D01*
X865632Y698500D01*
Y686699D02*
Y698500D01*
Y686699D02*
X865769Y686562D01*
X801268Y710286D02*
X814657D01*
X783082Y728472D02*
X801268Y710286D01*
X768858Y728472D02*
X783082D01*
X767334Y726948D02*
X768858Y728472D01*
X728726Y779018D02*
Y793435D01*
X814022Y671932D02*
X848512D01*
X857758Y662686D01*
X864108D01*
X865886Y660908D01*
Y647817D02*
Y660908D01*
X865769Y647700D02*
X865886Y647817D01*
X809904Y671932D02*
X814022D01*
X803148Y678688D02*
X809904Y671932D01*
X712978Y732536D02*
X714502Y731012D01*
X712978Y732536D02*
Y752155D01*
X814276Y633197D02*
X844829D01*
X853440Y624586D01*
X863092D01*
X865632Y622046D01*
Y609356D02*
Y622046D01*
Y609356D02*
X865769Y609219D01*
X714502Y731012D02*
X729488D01*
X737616Y722884D01*
Y716026D02*
Y722884D01*
Y716026D02*
X767334Y686308D01*
Y649224D02*
Y686308D01*
Y649224D02*
X779780Y636778D01*
X810694D01*
X814276Y633197D01*
X850255Y1032139D02*
Y1037844D01*
Y1032139D02*
X856488Y1025906D01*
X926592D01*
X938022Y1037336D01*
X982472D01*
X1004316Y1015492D01*
X850509Y950351D02*
Y959993D01*
Y950351D02*
X853186Y947674D01*
X885190D01*
X892556Y940308D02*
X920242D01*
X952500Y948436D02*
X959358Y955294D01*
X885190Y947674D02*
X892556Y940308D01*
X920242D02*
X928370Y948436D01*
X952500D01*
X850255Y912759D02*
Y920115D01*
Y912759D02*
X854964Y908050D01*
X883666D01*
X892048Y899668D01*
X915924D01*
X927100Y910844D01*
X950722D01*
X950976Y910590D01*
X850128Y873770D02*
Y881634D01*
Y873770D02*
X853948Y869950D01*
X882142D01*
X892556Y859536D01*
Y859282D02*
Y859536D01*
Y859282D02*
X892810Y859028D01*
X893064D01*
X893826Y858266D01*
X916940D01*
X924560Y865886D01*
X957834D01*
X850001Y835543D02*
Y842772D01*
Y835543D02*
X855472Y830072D01*
X877824D01*
X890016Y817880D01*
X965200D01*
X849747Y792363D02*
Y803148D01*
Y792363D02*
X852170Y789940D01*
X880110D01*
X891286Y778764D01*
X926592D01*
X850382Y755914D02*
Y764159D01*
Y755914D02*
X853186Y753110D01*
X879856D01*
X893572Y739394D01*
X920750D01*
X922528Y737616D01*
X959612D01*
X960120Y738124D01*
X850382Y718322D02*
Y725678D01*
Y718322D02*
X854710Y713994D01*
X879348D01*
X892302Y701040D01*
X969772D01*
X1006094Y737362D01*
X850001Y591957D02*
Y609219D01*
Y591957D02*
X858520Y583438D01*
X919988D01*
X925830Y589280D01*
X939800D01*
X945896Y583184D01*
X988314D01*
X1041146Y636016D01*
X1071753Y816864D02*
X1094877D01*
X1071499Y816610D02*
X1071753Y816864D01*
X1071118Y796544D02*
X1095131D01*
X1071118D02*
X1071245Y796671D01*
X791621Y352171D02*
X812800Y352425D01*
X812927Y352298D01*
X901837Y995563D02*
X902716Y995309D01*
X901837Y995563D02*
X902970Y995426D01*
X902198Y1044712D02*
X902208D01*
X902198D02*
X902208Y1044702D01*
X1183132Y990971D02*
Y993140D01*
X1166114Y1006348D02*
X1183132Y993140D01*
X749562Y383187D02*
Y389687D01*
X765947Y445262D02*
Y459877D01*
X771906Y465836D01*
X758063Y479679D02*
Y490220D01*
Y479679D02*
X771906Y465836D01*
X770763Y466979D02*
Y490220D01*
Y466979D02*
X771906Y465836D01*
X783463Y477393D02*
Y490220D01*
X771906Y465836D02*
X783463Y477393D01*
X734723Y383187D02*
X749562D01*
X722122Y370586D02*
X734723Y383187D01*
X685302Y372100D02*
Y382905D01*
Y372100D02*
X687578Y369824D01*
X721360D01*
X722122Y370586D01*
X1170686Y941070D02*
X1171702Y938022D01*
X1243584Y765048D02*
Y767334D01*
X1239012Y771906D02*
X1243584Y767334D01*
X768477Y592064D02*
X789559D01*
X763621Y352171D02*
Y357475D01*
X777748Y371602D01*
X786638D01*
X787400Y372364D01*
Y391414D02*
X789127Y389687D01*
X735584Y339852D02*
X751301D01*
X763621Y352171D01*
X1035050Y396748D02*
Y433527D01*
X1039165Y437642D01*
X1253744Y374513D02*
X1270645D01*
X1277620Y367538D01*
X1330254D01*
X1331930Y369214D01*
X1312316Y388214D02*
X1331930D01*
X1304544Y395986D02*
X1312316Y388214D01*
X1292977Y395986D02*
X1304544D01*
X1292606Y396357D02*
X1292977Y395986D01*
X1291318Y397647D02*
X1292606Y396357D01*
X902208Y571998D02*
X934197D01*
X935482Y573283D01*
X949566D01*
X953704Y569148D01*
X962279Y560573D01*
X941832Y561340D02*
X945896D01*
X953704Y569148D01*
X819254Y609219D02*
X833003D01*
X814276Y614197D02*
X819254Y609219D01*
X814022Y652932D02*
X828152D01*
X833384Y647700D01*
X814657Y691286D02*
X828406D01*
X833130Y686562D01*
X814911Y730148D02*
X828914D01*
X833384Y725678D01*
X814911Y769264D02*
X815696D01*
X820928Y764032D01*
X833257D01*
X833384Y764159D01*
X814911Y808507D02*
X827390D01*
X832749Y803148D01*
X815546Y847623D02*
X828152D01*
X833003Y842772D01*
X816460Y886206D02*
X828558D01*
X833130Y881634D01*
X821413Y920115D02*
X833257D01*
X816181Y925347D02*
X821413Y920115D01*
X816181Y965098D02*
X828406D01*
X833511Y959993D01*
X816181Y1003960D02*
X828660D01*
X833511Y999109D01*
X816181Y1042187D02*
X828914D01*
X833257Y1037844D01*
X1238504Y971159D02*
X1308979D01*
X1315720Y977900D01*
X1238504Y954161D02*
X1308979D01*
X1315720Y947420D01*
X818642Y393192D02*
Y394462D01*
X817118Y395986D02*
X818642Y394462D01*
X805119Y395986D02*
X817118D01*
X804918Y396189D02*
X805119Y395986D01*
X804918Y409189D02*
X805165Y408940D01*
X864870Y437896D02*
X882904D01*
X863854Y438912D02*
X864870Y437896D01*
X814959Y410083D02*
X864499D01*
X814070Y409194D02*
X814959Y410083D01*
X804923Y409194D02*
X814070D01*
X804918Y409189D02*
X804923Y409194D01*
X717809Y409189D02*
X749562D01*
X710946Y416052D02*
X717809Y409189D01*
X690118Y416052D02*
X710946D01*
X685048Y404241D02*
Y410982D01*
X690118Y416052D01*
X732663Y551688D02*
Y572897D01*
X732536Y573024D02*
X732663Y572897D01*
X717550Y393192D02*
X717804D01*
X720852Y396240D01*
X749511D01*
X749562Y396189D01*
X783463Y551688D02*
Y568970D01*
X789559Y575066D01*
X770763Y551688D02*
Y572780D01*
X768477Y575066D02*
X770763Y572780D01*
X804918Y376687D02*
X846831D01*
X850646Y372872D01*
Y347980D02*
Y372872D01*
X849376Y346710D02*
X850646Y347980D01*
X837829Y346710D02*
X849376D01*
X837692Y346847D02*
X837829Y346710D01*
X804918Y376687D02*
X846587D01*
X846836Y376936D01*
X846582Y376428D02*
X846836Y376936D01*
X846582Y376428D02*
Y380492D01*
X782945Y445262D02*
Y452491D01*
X788924Y458470D01*
X881751Y385572D02*
Y397510D01*
Y402590D01*
Y409829D01*
X881497Y410083D02*
X881751Y409829D01*
X881654Y402689D02*
X881751Y402590D01*
X880735Y396494D02*
X881751Y397510D01*
X852678Y403860D02*
X858774Y397764D01*
X879465D01*
X880735Y396494D01*
X804918Y402689D02*
X816709D01*
X817880Y403860D01*
X852678D01*
X703600Y402689D02*
X749562D01*
X702046Y404241D02*
X703600Y402689D01*
X702300Y382905D02*
Y403987D01*
X702046Y404241D02*
X702300Y403987D01*
X814911Y788264D02*
X839876D01*
X849122Y779018D01*
X861822D01*
X865632Y775208D01*
Y764794D02*
Y775208D01*
Y764794D02*
X866394Y764032D01*
X865378Y765048D02*
X865632Y764794D01*
X802792Y788264D02*
X814911D01*
X790956Y800100D02*
X802792Y788264D01*
X733552Y866140D02*
X733806Y865886D01*
X730250Y869442D02*
X733552Y866140D01*
X713171Y869442D02*
X730250D01*
X850509Y992769D02*
Y999109D01*
Y992769D02*
X855980Y987298D01*
X856234D01*
X857504Y986028D01*
X886968D01*
X891794Y981202D01*
X911352D01*
X922528Y992378D01*
X993140D01*
X999490Y986028D01*
X902208Y1061710D02*
X947931D01*
X953516Y1056127D01*
X889244Y1061710D02*
X902208D01*
X882904Y1055370D02*
X889244Y1061710D01*
X882904Y1038489D02*
Y1055370D01*
X882259Y1037844D02*
X882904Y1038489D01*
X954781Y1054862D02*
X975614D01*
X953516Y1056127D02*
X954781Y1054862D01*
X975614D02*
X988314D01*
X1009650Y1033526D01*
X945020Y1023625D02*
X953516D01*
X930402Y1009010D02*
X945020Y1023625D01*
X928248Y1009010D02*
X930402D01*
X923798Y1013460D02*
X928248Y1009010D01*
X903869Y1013460D02*
X923798D01*
X902716Y1012307D02*
X903869Y1013460D01*
X882513Y999109D02*
Y1000877D01*
X893572Y1011936D01*
X902345D01*
X902716Y1012307D01*
X953516Y1023625D02*
X965957D01*
X969772Y1019810D01*
X985774D01*
X994410Y1011174D01*
X850128Y680222D02*
Y686562D01*
Y680222D02*
X856234Y674116D01*
X881888D01*
X893826Y662178D01*
X920242D01*
X927862Y669798D01*
X992632D01*
X995680Y672846D01*
X850382Y640344D02*
Y647700D01*
Y640344D02*
X855980Y634746D01*
X879856D01*
X891032Y623570D01*
X1001014D01*
X816181Y944347D02*
X843305D01*
X848106Y939546D01*
X863346D01*
X865632Y937260D01*
Y919597D02*
Y937260D01*
X865515Y919480D02*
X865632Y919597D01*
X726887Y974344D02*
X732028D01*
X746760D01*
X754634Y966470D01*
X781050D01*
X788162Y959358D01*
X801169D01*
X816181Y944347D01*
X865261Y1037844D02*
Y1054598D01*
X859409Y1060450D02*
X865261Y1054598D01*
X816917Y1060450D02*
X859409D01*
X816181Y1061187D02*
X816917Y1060450D01*
X712978Y927923D02*
X713171Y928116D01*
X815546Y866623D02*
X844321D01*
X849122Y861822D01*
X858266D01*
X865124Y854964D01*
Y842909D02*
Y854964D01*
Y842909D02*
X865261Y842772D01*
X804951Y866623D02*
X815546D01*
X794004Y877570D02*
X804951Y866623D01*
X685800Y949706D02*
X737616D01*
X745490Y941832D01*
X790448Y912876D02*
X808789D01*
X816181Y905485D01*
X1532636Y987298D02*
X1576832D01*
X1584706Y979424D01*
Y916432D02*
Y979424D01*
X1547876Y879602D02*
X1584706Y916432D01*
X1533144Y747776D02*
X1533398Y748030D01*
Y544830D02*
X1551432D01*
X1570736Y564134D01*
Y638556D01*
X1547368Y661924D02*
X1570736Y638556D01*
X1547368Y661924D02*
Y747522D01*
X1463802Y503428D02*
X1491996D01*
X1533398Y544830D01*
X1538986Y858774D02*
Y885190D01*
X1507744Y760476D02*
X1519936D01*
X1507998Y557530D02*
X1549400D01*
X1562100Y570230D01*
Y633730D01*
X1535430Y660400D02*
X1562100Y633730D01*
X1535430Y660400D02*
Y721360D01*
X1519936Y736854D02*
X1535430Y721360D01*
X1519936Y736854D02*
Y760476D01*
X1464564Y544068D02*
X1494282Y543814D01*
X1507998Y557530D01*
X1424971Y961898D02*
X1448816D01*
X1372362Y936498D02*
X1448816D01*
X1361440Y947420D02*
X1372362Y936498D01*
X1447546Y907542D02*
Y935228D01*
X1448816Y936498D01*
X1370838Y987298D02*
X1448816D01*
X1361440Y977900D02*
X1370838Y987298D01*
X1448816D02*
Y1021080D01*
X1448562Y1021334D02*
X1448816Y1021080D01*
X828957Y383187D02*
X835660Y389890D01*
Y390652D01*
X838962Y393954D01*
X713171Y988060D02*
X726887Y974344D01*
X797359Y1080008D02*
X816181Y1061187D01*
X589026Y1080008D02*
X797359D01*
X730250Y904240D02*
X753110D01*
X762254Y895096D01*
X713740Y808421D02*
X728726Y793435D01*
X750570Y716280D02*
X776732Y690118D01*
X750570Y733745D02*
X769173Y752348D01*
X750570Y716280D02*
Y733745D01*
X719963Y551688D02*
Y637921D01*
X635000Y683260D02*
X692150D01*
X745363Y630047D01*
Y551688D02*
Y630047D01*
X645922Y617220D02*
X680720D01*
X707263Y590677D01*
X642620Y371348D02*
X662940D01*
D41*
X1547876Y748030D02*
X1559560Y759714D01*
D42*
X1547368Y747522D02*
X1547876Y748030D01*
X1559560Y759714D02*
Y760984D01*
X934588Y980694D02*
X945134D01*
X930402Y976508D02*
X934588Y980694D01*
X932688Y923666D02*
X950854D01*
X950976Y923544D01*
X932688Y891164D02*
X954410D01*
X956564Y893318D01*
X956818Y882137D02*
Y893064D01*
X956564Y893318D02*
X956818Y893064D01*
X1073150Y1029325D02*
Y1042299D01*
X1107557Y884037D02*
X1121491D01*
X1101090Y877570D02*
X1107557Y884037D01*
X1050036Y1028700D02*
X1053592Y1025144D01*
X1042533Y1028700D02*
X1050036D01*
X1042416Y1028817D02*
X1042533Y1028700D01*
X1042416Y1028817D02*
Y1041791D01*
X1104900Y1028563D02*
X1105017Y1028446D01*
X1104900Y1028563D02*
Y1041537D01*
X1107806Y909066D02*
X1121491Y909035D01*
X1104900Y909066D02*
X1107806D01*
X1104900D02*
Y913638D01*
X1104755Y914037D02*
X1104900Y913638D01*
X1104755Y914037D02*
X1121491D01*
X1100836Y913892D02*
X1104900Y913638D01*
X1100836Y913892D02*
X1103884Y913384D01*
X1099393Y944037D02*
X1121491D01*
X1097534Y945896D02*
X1099393Y944037D01*
X1097534Y945896D02*
Y958781D01*
X1097788Y959035D01*
X1104900Y1058535D02*
X1105662Y1059297D01*
X1073912Y1058535D02*
X1104900D01*
X1073150Y1059297D02*
X1073912Y1058535D01*
X1042924Y1059297D02*
X1073150D01*
X1042416Y1058789D02*
X1042924Y1059297D01*
X1075436Y939038D02*
X1088898Y939175D01*
X930402Y1009010D02*
X944250D01*
X946404Y1006856D01*
X254000Y254000D02*
X1703837D01*
X1704088Y254251D01*
Y1113539D01*
X1704340Y1113790D01*
X254000D02*
X1704340D01*
X254000Y254000D02*
Y1113790D01*
D43*
X1202182Y849884D02*
X1242822D01*
X1499283Y385110D02*
Y397609D01*
X1199253Y364490D02*
Y389390D01*
X1212096D01*
X1253744Y454066D02*
X1254506Y421503D01*
X1253404Y454406D02*
X1253744Y454066D01*
X1349532Y422402D02*
Y456153D01*
X1333246Y472440D02*
X1349532Y456153D01*
X1256792Y472440D02*
X1333246D01*
X1253236Y468884D02*
X1256792Y472440D01*
X1253236Y454574D02*
Y468884D01*
Y454574D02*
X1253404Y454406D01*
X1349532Y422402D02*
X1351026D01*
X1358646Y414782D01*
Y388930D02*
Y414782D01*
X1357930Y388214D02*
X1358646Y388930D01*
X1239891Y421503D02*
X1254506D01*
X1227836Y409448D02*
X1239891Y421503D01*
X1227836Y405130D02*
Y409448D01*
X1212096Y389390D02*
X1227836Y405130D01*
X1262380Y844012D02*
X1262411Y843757D01*
X1281684Y833374D01*
X654909Y521813D02*
X663448D01*
X1281684Y833374D02*
X1282984Y833628D01*
X1210056Y770382D02*
X1237488D01*
X1239012Y771906D01*
X1243076Y775970D01*
Y849630D01*
Y867410D01*
X1262014Y870854D01*
X1242822Y849884D02*
X1243076Y849630D01*
X1191514Y793496D02*
X1210056D01*
X1178052Y780034D02*
X1191514Y793496D01*
X1178052Y750570D02*
Y780034D01*
Y750570D02*
X1180846Y747776D01*
X1264920D01*
X1271524Y754380D01*
Y792986D01*
X1272035Y793496D01*
X1199253Y414289D02*
Y439189D01*
X1357930Y358186D02*
Y369214D01*
X1352042Y352298D02*
X1357930Y358186D01*
X1258961Y352298D02*
X1352042D01*
X1253744Y357515D02*
X1258961Y352298D01*
X1253744Y357124D02*
Y357515D01*
Y357124D02*
X1258824Y352044D01*
X1351280D01*
X1358138Y358902D01*
X1200150Y468884D02*
X1216660Y485394D01*
X1200150Y440085D02*
Y468884D01*
X1199253Y439189D02*
X1200150Y440085D01*
X1358138Y358902D02*
X1369568D01*
X1372108Y361442D01*
X1216660Y485394D02*
X1340612D01*
Y484886D02*
Y485394D01*
Y484886D02*
X1362202Y463296D01*
Y443484D02*
Y463296D01*
Y443484D02*
X1371600Y434086D01*
Y361950D02*
Y434086D01*
Y361950D02*
X1372108Y361442D01*
X1254506Y404505D02*
X1284460D01*
X1292606Y396357D01*
X1274404Y454406D02*
X1291473D01*
X1292743Y455676D01*
X1499283Y410111D02*
Y422610D01*
D44*
X1384808Y296896D02*
X1396467Y285237D01*
X1342784Y296896D02*
X1384808D01*
X1341798Y295910D02*
X1342784Y296896D01*
X1309741Y434193D02*
Y455676D01*
Y434193D02*
X1321532Y422402D01*
X1435100Y285237D02*
X1452875D01*
X1485138Y317500D01*
Y370965D01*
X1499283Y385110D01*
X1396467Y285237D02*
X1435100D01*
X1384808Y296896D02*
X1385540D01*
X1385824Y297180D01*
Y296164D02*
Y297180D01*
Y296164D02*
X1395730Y286258D01*
X1452880D01*
X1485392Y318770D01*
Y375412D01*
X1481836Y378968D02*
X1485392Y375412D01*
X932609Y297485D02*
X952500D01*
X923036Y307055D02*
X932609Y297485D01*
X905033Y307055D02*
X923036D01*
X898652Y313436D02*
X905033Y307055D01*
X898652Y313436D02*
Y369062D01*
X904748Y375158D01*
X919988D01*
X952439D02*
X952754Y374843D01*
X919988Y375158D02*
X952439D01*
X914400Y380746D02*
X919988Y375158D01*
X914400Y380746D02*
Y461010D01*
X1006094D01*
X1006348Y460756D01*
X1267968Y295910D02*
Y333502D01*
X1200912D02*
X1267968D01*
X1199253D02*
X1200912D01*
X1199253D02*
Y364490D01*
X1410208Y372364D02*
X1434338Y348234D01*
X1409700D02*
X1434338D01*
X1384554Y323088D02*
X1409700Y348234D01*
X1384554Y323088D02*
Y326136D01*
Y329184D01*
X1379728Y334010D02*
X1384554Y329184D01*
X1201420Y334010D02*
X1379728D01*
X1200912Y333502D02*
X1201420Y334010D01*
X1410208Y372364D02*
Y403436D01*
X1378204Y452882D02*
Y537210D01*
Y452882D02*
X1410208Y420878D01*
Y403436D02*
Y420878D01*
X1434343Y348239D02*
X1435100D01*
X1434338Y348234D02*
X1434343Y348239D01*
X1384808Y324897D02*
Y325882D01*
X1384554Y326136D02*
X1384808Y325882D01*
X1267798Y295910D02*
X1267968D01*
X1378204Y537210D02*
X1448816Y607822D01*
X1480312D01*
X1507490D01*
X1507998Y608330D01*
X1520698D01*
X1533398Y595630D01*
Y570230D02*
Y595630D01*
X1531112Y798576D02*
X1533144D01*
X1518412Y811276D02*
X1531112Y798576D01*
X1490726Y811276D02*
X1507744D01*
X1484122Y804672D02*
X1490726Y811276D01*
X1484122Y611632D02*
Y804672D01*
X1480312Y607822D02*
X1484122Y611632D01*
X1507744Y811276D02*
X1518412D01*
X1533144Y773176D02*
Y798576D01*
X1003016Y335026D02*
X1022096D01*
X1002538Y334548D02*
X1003016Y335026D01*
X953437Y334548D02*
X1002538D01*
X952500Y335483D02*
X953437Y334548D01*
X923465Y335483D02*
X952500D01*
X923036Y335056D02*
X923465Y335483D01*
X1002538Y334548D02*
Y366771D01*
X1001522Y367787D02*
X1002538Y366771D01*
X1389126Y961898D02*
X1396969D01*
X1388110Y960882D02*
X1389126Y961898D01*
X687324Y529590D02*
X694944D01*
X1176274Y803402D02*
Y823976D01*
X1202182Y849884D01*
X663448Y549813D02*
X687421D01*
X688086Y549148D01*
Y530352D02*
Y549148D01*
X687324Y529590D02*
X688086Y530352D01*
X802894Y529590D02*
X810768D01*
X812546Y531368D01*
X1153414Y780542D02*
X1176274Y803402D01*
X1153414Y554990D02*
Y780542D01*
X1106932Y508508D02*
X1153414Y554990D01*
X1059688Y508508D02*
X1106932D01*
X1041908Y490728D02*
X1059688Y508508D01*
X853186Y490728D02*
X1041908D01*
X814324Y529590D02*
X853186Y490728D01*
X694944Y516636D02*
Y529590D01*
Y516636D02*
X699262Y512318D01*
X793750D01*
X803910Y522478D01*
X1003808Y437642D02*
X1039165D01*
X995680Y429514D02*
X1003808Y437642D01*
X995680Y429514D02*
X1000247D01*
X1001522Y430789D01*
X952810D02*
X1001522D01*
X952754Y430845D02*
X952810Y430789D01*
X1002538Y306548D02*
X1045941D01*
X1063244Y323850D01*
Y357175D01*
X1179322Y747776D02*
X1180846D01*
X1040638Y358394D02*
X1062025D01*
X1063244Y357175D01*
Y486918D02*
X1117346D01*
X1178814Y548386D01*
Y747268D01*
X1179322Y747776D01*
X1078713Y439189D02*
X1117854D01*
X1077163Y437642D02*
X1078713Y439189D01*
X1098550Y389390D02*
X1117854D01*
X1069028D02*
X1098550D01*
X1063244Y395173D02*
X1069028Y389390D01*
X1109233Y414289D02*
X1117854D01*
X1098296Y403352D02*
X1109233Y414289D01*
X1098296Y389644D02*
Y403352D01*
Y389644D02*
X1098550Y389390D01*
X1410208Y477436D02*
X1449789D01*
X1465118Y462107D01*
X1468120Y422610D02*
X1499283D01*
X1465118Y419608D02*
X1468120Y422610D01*
D45*
X1293251Y378714D02*
X1331930D01*
X1292606Y379359D02*
X1293251Y378714D01*
X1321532Y408401D02*
Y422402D01*
X1321308Y408178D02*
X1321532Y408401D01*
X1282446Y378714D02*
X1331930D01*
X1275080Y388620D02*
X1282446Y378714D01*
X1104900Y1011428D02*
Y1011565D01*
X1073150Y1011936D02*
Y1012327D01*
X1042416Y1011819D02*
Y1011936D01*
X1241806Y1043463D02*
Y1054608D01*
X1242060Y1054862D01*
X1273810Y1042954D02*
Y1054354D01*
X711200Y343662D02*
Y358902D01*
X718566Y366268D01*
Y367030D01*
X722122Y370586D01*
X694563Y529971D02*
Y551688D01*
Y529971D02*
X694944Y529590D01*
X768477Y592064D02*
X805444D01*
X812546Y584962D01*
Y531368D02*
Y584962D01*
Y531368D02*
X814324Y529590D01*
X787400Y372364D02*
Y391414D01*
Y417576D01*
X803910Y434086D01*
Y522478D01*
Y528574D01*
X802894Y529590D02*
X803910Y528574D01*
X1169162Y940562D02*
X1176020Y935990D01*
X1169162Y940562D02*
X1171321Y938403D01*
X1171702Y938022D01*
X1227328Y915416D02*
X1235710D01*
X1262126Y889000D01*
Y872266D02*
Y889000D01*
Y872266D02*
X1262380Y872012D01*
X1223487Y1015462D02*
X1241806D01*
X1214882Y1006856D02*
X1223487Y1015462D01*
X1215136Y922528D02*
Y929132D01*
X1197102Y904494D02*
X1215136Y922528D01*
X1167130Y904494D02*
X1197102D01*
X1273810Y998474D02*
Y1014954D01*
X1264920Y989584D02*
X1273810Y998474D01*
X1200150Y989584D02*
X1264920D01*
D46*
X421760Y923530D02*
X436880Y938650D01*
X697738Y1019302D02*
X699770D01*
X683260Y1033780D02*
X697738Y1019302D01*
X655320Y1033780D02*
X683260D01*
X608330Y1009650D02*
X687131D01*
X599318Y1018662D02*
X608330Y1009650D01*
X657728Y976437D02*
X678942D01*
X655381Y974090D02*
X657728Y976437D01*
X603504Y949706D02*
X685800D01*
X599379Y953831D02*
X603504Y949706D01*
X599379Y953831D02*
Y974090D01*
X690880Y988060D02*
X713171D01*
X678180Y1000760D02*
X690880Y988060D01*
X421760Y945530D02*
Y1058030D01*
X443738Y1080008D01*
X589026D01*
X436880Y938650D02*
Y1055370D01*
X453644Y1072134D01*
X661924D01*
X574040Y972820D02*
X575310Y974090D01*
X599379D01*
X655381Y914400D02*
X679450D01*
X671830Y941070D02*
X684784Y928116D01*
X519430Y989330D02*
X530860Y1000760D01*
X678180D01*
X496570Y991870D02*
X547370Y941070D01*
X671830D01*
X449580Y975360D02*
Y980440D01*
X496570Y991870D02*
Y1019810D01*
X552450Y914400D02*
X599379D01*
X482600Y984250D02*
X552450Y914400D01*
X482600Y984250D02*
Y1036320D01*
X779526Y835914D02*
X806503D01*
X775970Y839470D02*
X779526Y835914D01*
X720151Y920750D02*
X741680D01*
X712978Y927923D02*
X720151Y920750D01*
X684784Y928116D02*
X713171D01*
X679450Y914400D02*
X689610Y904240D01*
X730250D01*
X744220Y880110D02*
Y886460D01*
X735330Y895350D02*
X744220Y886460D01*
X685800Y895350D02*
X735330D01*
X680720Y890270D02*
X685800Y895350D01*
X607060Y890270D02*
X680720D01*
X599379Y897951D02*
X607060Y890270D01*
X599379Y897951D02*
Y914400D01*
X688848Y869442D02*
X713171D01*
X678180Y880110D02*
X688848Y869442D01*
X567690Y880110D02*
X678180D01*
X468630Y979170D02*
X567690Y880110D01*
X570108Y1062990D02*
X599318Y1033780D01*
X455930Y1062990D02*
X570108D01*
X448310Y981710D02*
X449580Y980440D01*
X448310Y981710D02*
Y1055370D01*
X455930Y1062990D01*
X468630Y979170D02*
Y1046480D01*
X464820Y1050290D02*
X468630Y1046480D01*
X683260Y849630D02*
X689610Y855980D01*
X657921Y849630D02*
X683260D01*
X681990Y828040D02*
X685800D01*
X678180Y824230D02*
X681990Y828040D01*
X609600Y824230D02*
X678180D01*
X601919Y831911D02*
X609600Y824230D01*
X601919Y831911D02*
Y849630D01*
X451760Y945530D02*
X483220D01*
X579120Y849630D01*
X601919D01*
X685038Y808482D02*
X713679D01*
X679450Y814070D02*
X685038Y808482D01*
X594360Y814070D02*
X679450D01*
X484900Y923530D02*
X594360Y814070D01*
X451760Y923530D02*
X484900D01*
X692912Y706628D02*
X718881D01*
X675640Y784860D02*
X687070Y773430D01*
X657921Y784860D02*
X675640D01*
X485249Y901530D02*
X627319Y759460D01*
X451760Y901530D02*
X485249D01*
X676910Y722630D02*
X692912Y706628D01*
X655381Y722630D02*
X676910D01*
X451760Y879530D02*
X484450D01*
X568960Y795020D01*
Y765810D02*
Y795020D01*
Y765810D02*
X588010Y746760D01*
X627319Y759460D02*
X673100D01*
X588010Y746760D02*
X707583D01*
X712978Y752155D01*
X534670Y683260D02*
X635000D01*
X529473Y678063D02*
X534670Y683260D01*
X529473Y667512D02*
Y678063D01*
X486362Y667512D02*
X529473D01*
X452910Y634060D02*
X486362Y667512D01*
X708914Y648970D02*
X719963Y637921D01*
X534670Y648970D02*
X708914D01*
X528457Y642757D02*
X534670Y648970D01*
X528457Y636016D02*
Y642757D01*
X476612Y635762D02*
X529473D01*
X452910Y612060D02*
X476612Y635762D01*
X529981Y603250D02*
Y613801D01*
X533400Y617220D01*
X645922D01*
X466100Y603250D02*
X529981D01*
X452910Y590060D02*
X466100Y603250D01*
X660400Y584200D02*
X676910Y600710D01*
X535940Y584200D02*
X660400D01*
X529981Y578241D02*
X535940Y584200D01*
X529981Y571500D02*
Y578241D01*
X575310Y722630D02*
X599379D01*
X562493Y666633D02*
X562610Y666750D01*
X546979Y571500D02*
X562610D01*
X545455Y666633D02*
X562493D01*
X546979Y603250D02*
X562610D01*
X562356Y636016D02*
X562610Y636270D01*
X545455Y636016D02*
X562356D01*
X456350Y571500D02*
X529981D01*
X452910Y568060D02*
X456350Y571500D01*
X452910Y392060D02*
X462650D01*
X481330Y373380D01*
X529981D01*
X487680Y407670D02*
X529981D01*
X481290Y414060D02*
X487680Y407670D01*
X452910Y414060D02*
X481290D01*
X488950Y441960D02*
X529590D01*
X483050Y436060D02*
X488950Y441960D01*
X452910Y436060D02*
X483050D01*
X486410Y476250D02*
X529590D01*
X468220Y458060D02*
X486410Y476250D01*
X452910Y458060D02*
X468220D01*
X546979Y373380D02*
X549011Y371348D01*
X719963Y457327D02*
Y490220D01*
Y457327D02*
X720090Y457200D01*
X529981Y383931D02*
X533400Y387350D01*
X529981Y373380D02*
Y383931D01*
X707263Y448183D02*
Y490220D01*
X693420Y434340D02*
X707263Y448183D01*
X529981Y418221D02*
X534670Y422910D01*
X529981Y407670D02*
Y418221D01*
X749562Y409189D02*
X760979D01*
X762000Y410210D01*
Y426720D01*
X706120Y425450D02*
X732663Y451993D01*
Y490220D01*
X745490Y444500D02*
Y490093D01*
X736600Y435610D02*
X745490Y444500D01*
X538480Y459740D02*
X683260D01*
X529590Y450850D02*
X538480Y459740D01*
X529590Y441960D02*
Y450850D01*
X690880Y473710D02*
X694563Y477393D01*
X582930Y473710D02*
X690880D01*
X566420Y490220D02*
X582930Y473710D01*
X532130Y490220D02*
X566420D01*
X529590Y487680D02*
X532130Y490220D01*
X529590Y476250D02*
Y487680D01*
X694563Y477393D02*
Y490220D01*
X546588Y476250D02*
X561340D01*
X549011Y371348D02*
X642620D01*
X546979Y407670D02*
X561340D01*
X546588Y441960D02*
X561340D01*
X663448Y505968D02*
Y521813D01*
X662940Y505460D02*
X663448Y505968D01*
X534670Y422910D02*
X572770D01*
X584200Y434340D01*
X693420D01*
X533400Y387350D02*
X565150D01*
X603250Y425450D01*
X706120D01*
X654431Y404241D02*
X685048D01*
X648970Y398780D02*
X654431Y404241D01*
D47*
X1102360Y364490D02*
X1117854D01*
X1097280Y359410D02*
X1102360Y364490D01*
X1097280Y293624D02*
Y359410D01*
Y293624D02*
X1107186Y283718D01*
D48*
X366910Y399060D02*
D03*
Y627060D02*
D03*
X365760Y938530D02*
D03*
Y798530D02*
D03*
D49*
X422910Y392060D02*
D03*
Y414060D02*
D03*
Y436060D02*
D03*
Y458060D02*
D03*
Y480060D02*
D03*
Y502060D02*
D03*
Y524060D02*
D03*
Y546060D02*
D03*
Y568060D02*
D03*
Y590060D02*
D03*
Y612060D02*
D03*
Y634060D02*
D03*
X452910D02*
D03*
Y612060D02*
D03*
Y590060D02*
D03*
Y568060D02*
D03*
Y546060D02*
D03*
Y524060D02*
D03*
Y502060D02*
D03*
Y480060D02*
D03*
Y458060D02*
D03*
Y436060D02*
D03*
Y414060D02*
D03*
X421760Y791530D02*
D03*
Y813530D02*
D03*
Y835530D02*
D03*
Y857530D02*
D03*
Y879530D02*
D03*
Y901530D02*
D03*
Y923530D02*
D03*
Y945530D02*
D03*
X451760D02*
D03*
Y923530D02*
D03*
Y901530D02*
D03*
Y879530D02*
D03*
Y857530D02*
D03*
Y835530D02*
D03*
Y813530D02*
D03*
D50*
X452910Y392060D02*
D03*
X451760Y791530D02*
D03*
D51*
X735584Y339852D02*
D03*
X1107186Y283718D02*
D03*
X679450Y323342D02*
D03*
X648970Y398780D02*
D03*
X882904Y437896D02*
D03*
X1464564Y544068D02*
D03*
X1463802Y503428D02*
D03*
X1447546Y907542D02*
D03*
X1448562Y1021334D02*
D03*
X1035050Y396748D02*
D03*
D52*
X1532890Y544830D02*
D03*
Y748030D02*
D03*
D53*
X1507490Y557530D02*
D03*
X1532890Y570230D02*
D03*
X1507490Y582930D02*
D03*
X1532890Y595630D02*
D03*
X1507490Y608330D02*
D03*
X1532890Y621030D02*
D03*
X1507490Y633730D02*
D03*
Y760730D02*
D03*
X1532890Y773430D02*
D03*
X1507490Y786130D02*
D03*
X1532890Y798830D02*
D03*
X1507490Y811530D02*
D03*
X1532890Y824230D02*
D03*
X1507490Y836930D02*
D03*
D54*
X1648460Y666750D02*
D03*
Y511810D02*
D03*
Y869950D02*
D03*
Y715010D02*
D03*
D55*
X1604010Y647700D02*
D03*
Y530860D02*
D03*
Y850900D02*
D03*
Y734060D02*
D03*
D56*
X302260Y1065530D02*
D03*
X1659890Y1069340D02*
D03*
X1658620Y299720D02*
D03*
X303530Y303530D02*
D03*
D57*
X1221740Y863600D02*
D03*
X1321308Y408178D02*
D03*
X1275080Y388620D02*
D03*
X1481836Y378968D02*
D03*
X945134Y980694D02*
D03*
X929894Y959104D02*
D03*
X937768Y937768D02*
D03*
X950976Y923544D02*
D03*
X956564Y893318D02*
D03*
X952246Y832104D02*
D03*
X951484Y805688D02*
D03*
X940308Y763016D02*
D03*
X946912Y723138D02*
D03*
X979678Y692404D02*
D03*
X933450Y644398D02*
D03*
X988568Y633984D02*
D03*
X950722Y597916D02*
D03*
X1009904Y1059180D02*
D03*
X1006348Y460756D02*
D03*
X777240Y709422D02*
D03*
X792226Y743712D02*
D03*
X752856Y793750D02*
D03*
X762254Y895096D02*
D03*
X792988Y847344D02*
D03*
X792480Y821944D02*
D03*
X753110Y862838D02*
D03*
X789432Y779018D02*
D03*
X1089152Y987044D02*
D03*
X1088898Y1019810D02*
D03*
X663448Y371856D02*
D03*
X756666Y614172D02*
D03*
X812800Y753364D02*
D03*
X767334Y726948D02*
D03*
X728726Y779018D02*
D03*
X803148Y678688D02*
D03*
X1210056Y832104D02*
D03*
X1281938Y852678D02*
D03*
X1042416Y1011936D02*
D03*
X1073150D02*
D03*
X1104900Y1011428D02*
D03*
X1103884Y913384D02*
D03*
X1071499Y816610D02*
D03*
X1071245Y796671D02*
D03*
X812927Y352298D02*
D03*
X902208Y554990D02*
D03*
X901700Y594360D02*
D03*
X902208Y634492D02*
D03*
X901954Y673100D02*
D03*
X901700Y711708D02*
D03*
Y750570D02*
D03*
Y789686D02*
D03*
X902208Y829310D02*
D03*
X916432Y877316D02*
D03*
X902716Y911352D02*
D03*
X903224Y951992D02*
D03*
X902970Y995426D02*
D03*
X902208Y1044702D02*
D03*
X1137666Y1014222D02*
D03*
X1281684Y833374D02*
D03*
X1166114Y1006348D02*
D03*
X1022096Y335026D02*
D03*
X975106Y334518D02*
D03*
X939546Y335788D02*
D03*
X771906Y465836D02*
D03*
X722122Y370586D02*
D03*
X976376Y528574D02*
D03*
X864616Y327660D02*
D03*
X1388110Y960882D02*
D03*
X1242060Y1054862D02*
D03*
X1273810Y1054354D02*
D03*
X711200Y343662D02*
D03*
X1075436Y956310D02*
D03*
X1243584Y765048D02*
D03*
X1163320Y1050290D02*
D03*
X1176020Y935990D02*
D03*
X1227328Y915416D02*
D03*
X1063244Y486918D02*
D03*
X1040638Y358394D02*
D03*
X941832Y561340D02*
D03*
X818642Y393192D02*
D03*
X899922Y508762D02*
D03*
X863854Y472948D02*
D03*
X828294Y549656D02*
D03*
X732536Y573024D02*
D03*
X717550Y393192D02*
D03*
X1111504Y843026D02*
D03*
X1111758Y798068D02*
D03*
X1138428Y914400D02*
D03*
X1088136Y756412D02*
D03*
X797052Y565150D02*
D03*
X934720Y536956D02*
D03*
X1103376Y774446D02*
D03*
X846074Y530606D02*
D03*
X798322Y543052D02*
D03*
X1152398Y913638D02*
D03*
X846582Y380492D02*
D03*
X788924Y458470D02*
D03*
X1075436Y939038D02*
D03*
X1253998Y819404D02*
D03*
X790956Y800100D02*
D03*
X733552Y866140D02*
D03*
X975614Y1054862D02*
D03*
X969772Y1019810D02*
D03*
X946404Y1006856D02*
D03*
X732028Y974344D02*
D03*
X794004Y877570D02*
D03*
X745490Y941832D02*
D03*
X790448Y912876D02*
D03*
X838962Y393954D02*
D03*
X862838Y512572D02*
D03*
X1167130Y904494D02*
D03*
X1121156Y773176D02*
D03*
X1214882Y1006856D02*
D03*
X1215136Y929132D02*
D03*
X1195324Y935228D02*
D03*
X1200150Y989584D02*
D03*
X720090Y457200D02*
D03*
X762000Y426720D02*
D03*
X736600Y435610D02*
D03*
D58*
X574040Y972820D02*
D03*
X519430Y989330D02*
D03*
X449580Y975360D02*
D03*
X496570Y1019810D02*
D03*
X482600Y1036320D02*
D03*
X775970Y839470D02*
D03*
X744220Y880110D02*
D03*
X741680Y920750D02*
D03*
X464820Y1050290D02*
D03*
X689610Y855980D02*
D03*
X685800Y828040D02*
D03*
X687070Y773430D02*
D03*
X673100Y759460D02*
D03*
X676910Y600710D02*
D03*
X575310Y722630D02*
D03*
X562610Y666750D02*
D03*
Y571500D02*
D03*
Y603250D02*
D03*
Y636270D02*
D03*
X683260Y459740D02*
D03*
X561340Y476250D02*
D03*
Y370840D02*
D03*
Y407670D02*
D03*
Y441960D02*
D03*
X662940Y505460D02*
D03*
X1564640Y535940D02*
D03*
X1595120Y812800D02*
D03*
M02*
