G04 Layer_Color=8421504*
%FSLAX44Y44*%
%MOMM*%
G71*
G01*
G75*
%ADD10R,1.8001X3.1999*%
%ADD11R,1.4001X1.4001*%
%ADD12R,1.5999X0.8001*%
%ADD13R,3.0000X2.1001*%
%ADD14R,2.0000X0.8999*%
%ADD15R,1.9050X1.0160*%
%ADD16R,1.5001X1.0000*%
%ADD17R,1.0500X0.4501*%
%ADD18R,1.2200X0.6200*%
%ADD19R,1.2499X0.3000*%
%ADD20R,1.1001X1.0000*%
%ADD21R,1.0000X1.1001*%
%ADD22R,3.1999X1.8001*%
%ADD23R,2.2352X1.2192*%
%ADD24R,2.1999X3.5999*%
%ADD25R,1.4001X1.0000*%
%ADD26R,0.6604X2.0320*%
%ADD27R,1.1999X1.1999*%
%ADD28R,3.8999X2.0000*%
%ADD29R,1.4001X1.4001*%
%ADD30R,1.2200X0.9101*%
%ADD31R,3.8001X2.8001*%
%ADD32R,2.8001X3.8001*%
%ADD33R,1.8001X1.5999*%
%ADD34R,2.8001X2.4001*%
%ADD35R,1.5999X1.8001*%
%ADD36R,1.1001X1.0000*%
%ADD37R,1.0000X1.1001*%
%ADD38R,1.1999X1.1999*%
%ADD42C,0.2540*%
D10*
X713679Y753110D02*
D03*
X769681D02*
D03*
X713679Y808482D02*
D03*
X769681D02*
D03*
X713171Y869442D02*
D03*
X769173D02*
D03*
X713171Y928116D02*
D03*
X769173D02*
D03*
X713171Y988060D02*
D03*
X769173D02*
D03*
X713679Y1051560D02*
D03*
X769681D02*
D03*
X599318Y1033780D02*
D03*
X655320D02*
D03*
X599379Y974090D02*
D03*
X655381D02*
D03*
X599379Y914400D02*
D03*
X655381D02*
D03*
X599379Y849630D02*
D03*
X655381D02*
D03*
X599379Y784860D02*
D03*
X655381D02*
D03*
X599379Y722630D02*
D03*
X655381D02*
D03*
D11*
X1063244Y395173D02*
D03*
Y357175D02*
D03*
X952500Y335483D02*
D03*
Y297485D02*
D03*
D12*
X1499283Y385110D02*
D03*
Y397609D02*
D03*
Y410111D02*
D03*
Y422610D02*
D03*
D13*
X1528285Y359611D02*
D03*
Y448109D02*
D03*
D14*
X1199253Y439189D02*
D03*
Y414289D02*
D03*
Y389390D02*
D03*
Y364490D02*
D03*
X1117854Y439189D02*
D03*
Y414289D02*
D03*
Y389390D02*
D03*
Y364490D02*
D03*
D15*
X1448816Y936498D02*
D03*
Y961898D02*
D03*
Y987298D02*
D03*
X1532636D02*
D03*
Y961898D02*
D03*
Y936498D02*
D03*
D16*
X1315720Y977900D02*
D03*
X1361440D02*
D03*
Y947420D02*
D03*
X1315720D02*
D03*
D17*
X749562Y370187D02*
D03*
Y376687D02*
D03*
Y383187D02*
D03*
Y389687D02*
D03*
Y396189D02*
D03*
Y402689D02*
D03*
Y409189D02*
D03*
Y415689D02*
D03*
X804918D02*
D03*
Y409189D02*
D03*
Y402689D02*
D03*
Y396189D02*
D03*
Y389687D02*
D03*
Y383187D02*
D03*
Y376687D02*
D03*
Y370187D02*
D03*
D18*
X1331930Y388214D02*
D03*
Y378714D02*
D03*
Y369214D02*
D03*
X1357930D02*
D03*
Y388214D02*
D03*
D19*
X1121491Y989035D02*
D03*
Y984037D02*
D03*
X1053493Y884037D02*
D03*
Y889036D02*
D03*
X1121491Y999035D02*
D03*
Y994037D02*
D03*
Y969035D02*
D03*
Y964037D02*
D03*
Y979035D02*
D03*
Y974037D02*
D03*
Y949035D02*
D03*
Y944037D02*
D03*
Y959035D02*
D03*
Y954037D02*
D03*
Y929035D02*
D03*
Y924037D02*
D03*
Y939035D02*
D03*
Y934037D02*
D03*
Y909035D02*
D03*
Y904037D02*
D03*
Y919035D02*
D03*
Y914037D02*
D03*
Y889036D02*
D03*
Y884037D02*
D03*
Y899035D02*
D03*
Y894037D02*
D03*
X1053493D02*
D03*
Y899035D02*
D03*
Y904037D02*
D03*
Y909035D02*
D03*
Y914037D02*
D03*
Y919035D02*
D03*
Y924037D02*
D03*
Y929035D02*
D03*
Y934037D02*
D03*
Y939035D02*
D03*
Y944037D02*
D03*
Y949035D02*
D03*
Y954037D02*
D03*
Y959035D02*
D03*
Y964037D02*
D03*
Y969035D02*
D03*
Y974037D02*
D03*
Y979035D02*
D03*
Y984037D02*
D03*
Y989035D02*
D03*
Y994037D02*
D03*
Y999035D02*
D03*
D20*
X1222375Y886323D02*
D03*
Y869325D02*
D03*
X1238504Y971159D02*
D03*
Y954161D02*
D03*
X1042416Y1011819D02*
D03*
Y1028817D02*
D03*
X1073150Y1012327D02*
D03*
Y1029325D02*
D03*
X1104900Y1011565D02*
D03*
Y1028563D02*
D03*
X1137666Y1015375D02*
D03*
Y1032373D02*
D03*
X1042416Y1041791D02*
D03*
Y1058789D02*
D03*
X1073150Y1042299D02*
D03*
Y1059297D02*
D03*
X1137666Y1045601D02*
D03*
Y1062599D02*
D03*
X1104900Y1041537D02*
D03*
Y1058535D02*
D03*
X769620Y591429D02*
D03*
Y574431D02*
D03*
X793750Y591429D02*
D03*
Y574431D02*
D03*
X1162050Y973973D02*
D03*
Y990971D02*
D03*
X1183132D02*
D03*
Y973973D02*
D03*
X837692Y346847D02*
D03*
Y363845D02*
D03*
X1152398Y851037D02*
D03*
Y868035D02*
D03*
X1175258Y851037D02*
D03*
Y868035D02*
D03*
X1292606Y396357D02*
D03*
Y379359D02*
D03*
X1254506Y421503D02*
D03*
Y404505D02*
D03*
X1253744Y374513D02*
D03*
Y357515D02*
D03*
D21*
X546471Y667512D02*
D03*
X529473D02*
D03*
X546471Y635762D02*
D03*
X529473D02*
D03*
X546979Y603250D02*
D03*
X529981D02*
D03*
X546979Y571500D02*
D03*
X529981D02*
D03*
X546588Y476250D02*
D03*
X529590D02*
D03*
X546588Y441960D02*
D03*
X529590D02*
D03*
X546979Y407670D02*
D03*
X529981D02*
D03*
X546979Y373380D02*
D03*
X529981D02*
D03*
X881751Y385572D02*
D03*
X864753D02*
D03*
X702300Y382905D02*
D03*
X685302D02*
D03*
X881497Y410083D02*
D03*
X864499D02*
D03*
X702046Y404241D02*
D03*
X685048D02*
D03*
X782945Y445262D02*
D03*
X765947D02*
D03*
X850001Y609219D02*
D03*
X833003D02*
D03*
X850382Y647700D02*
D03*
X833384D02*
D03*
X850128Y686562D02*
D03*
X833130D02*
D03*
X850382Y725678D02*
D03*
X833384D02*
D03*
X850382Y764159D02*
D03*
X833384D02*
D03*
X849747Y803148D02*
D03*
X832749D02*
D03*
X850001Y842772D02*
D03*
X833003D02*
D03*
X850128Y881634D02*
D03*
X833130D02*
D03*
X850255Y920115D02*
D03*
X833257D02*
D03*
X850509Y959993D02*
D03*
X833511D02*
D03*
X850509Y999109D02*
D03*
X833511D02*
D03*
X850255Y1037844D02*
D03*
X833257D02*
D03*
X882767Y609219D02*
D03*
X865769D02*
D03*
X882767Y647700D02*
D03*
X865769D02*
D03*
X882767Y686562D02*
D03*
X865769D02*
D03*
X883021Y725678D02*
D03*
X866023D02*
D03*
X882640Y764159D02*
D03*
X865642D02*
D03*
X882005Y803148D02*
D03*
X865007D02*
D03*
X882259Y842772D02*
D03*
X865261D02*
D03*
X882386Y881634D02*
D03*
X865388D02*
D03*
X882513Y919480D02*
D03*
X865515D02*
D03*
X882513Y959993D02*
D03*
X865515D02*
D03*
X882513Y999109D02*
D03*
X865515D02*
D03*
X1292743Y455676D02*
D03*
X1309741D02*
D03*
X882259Y1037844D02*
D03*
X865261D02*
D03*
D22*
X952754Y374843D02*
D03*
Y430845D02*
D03*
D23*
X1210056Y816610D02*
D03*
Y793496D02*
D03*
Y770382D02*
D03*
D24*
X1272035Y793496D02*
D03*
D25*
X814276Y614197D02*
D03*
Y633197D02*
D03*
X792274Y623697D02*
D03*
X814022Y652932D02*
D03*
Y671932D02*
D03*
X792020Y662432D02*
D03*
X814657Y691286D02*
D03*
Y710286D02*
D03*
X792655Y700786D02*
D03*
X814911Y730148D02*
D03*
Y749148D02*
D03*
X792909Y739648D02*
D03*
X814911Y769264D02*
D03*
Y788264D02*
D03*
X792909Y778764D02*
D03*
X814911Y808507D02*
D03*
Y827507D02*
D03*
X792909Y818007D02*
D03*
X815546Y847623D02*
D03*
Y866623D02*
D03*
X793544Y857123D02*
D03*
X816181Y886485D02*
D03*
Y905485D02*
D03*
X794179Y895985D02*
D03*
X816181Y925347D02*
D03*
Y944347D02*
D03*
X794179Y934847D02*
D03*
X816181Y965098D02*
D03*
Y984098D02*
D03*
X794179Y974598D02*
D03*
X816181Y1003960D02*
D03*
Y1022960D02*
D03*
X794179Y1013460D02*
D03*
X816181Y1042187D02*
D03*
Y1061187D02*
D03*
X794179Y1051687D02*
D03*
D26*
X694563Y490220D02*
D03*
Y551688D02*
D03*
X707263Y490220D02*
D03*
X719963D02*
D03*
X707263Y551688D02*
D03*
X719963D02*
D03*
X732663Y490220D02*
D03*
Y551688D02*
D03*
X745363Y490220D02*
D03*
Y551688D02*
D03*
X758063Y490220D02*
D03*
X770763D02*
D03*
X758063Y551688D02*
D03*
X770763D02*
D03*
X783463Y490220D02*
D03*
Y551688D02*
D03*
D27*
X1202436Y887181D02*
D03*
Y866181D02*
D03*
D28*
X1465118Y419608D02*
D03*
Y462107D02*
D03*
D29*
X1077163Y437642D02*
D03*
X1039165D02*
D03*
D30*
X962279Y528071D02*
D03*
Y560573D02*
D03*
X935482Y573283D02*
D03*
Y605785D02*
D03*
X961390Y607065D02*
D03*
Y639567D02*
D03*
X933450Y654436D02*
D03*
Y686938D02*
D03*
X960374Y686059D02*
D03*
Y718561D02*
D03*
X934339Y714761D02*
D03*
Y747263D02*
D03*
X956945Y756544D02*
D03*
Y789046D02*
D03*
X932053Y806074D02*
D03*
Y838576D02*
D03*
X956818Y849635D02*
D03*
Y882137D02*
D03*
X932688Y891164D02*
D03*
Y923666D02*
D03*
X954278Y936376D02*
D03*
Y968878D02*
D03*
X930402Y976508D02*
D03*
Y1009010D02*
D03*
X953516Y1023625D02*
D03*
Y1056127D02*
D03*
D31*
X1410208Y403436D02*
D03*
Y477436D02*
D03*
D32*
X1267798Y295910D02*
D03*
X1341798D02*
D03*
D33*
X1384808Y296896D02*
D03*
Y324897D02*
D03*
X1262380Y844012D02*
D03*
Y872012D02*
D03*
X923036Y335056D02*
D03*
Y307055D02*
D03*
X1273810Y1042954D02*
D03*
Y1014954D02*
D03*
X1241806Y1043463D02*
D03*
Y1015462D02*
D03*
X663448Y521813D02*
D03*
Y549813D02*
D03*
X1002538Y334548D02*
D03*
Y306548D02*
D03*
D34*
X1435100Y285237D02*
D03*
Y348239D02*
D03*
X1001522Y367787D02*
D03*
Y430789D02*
D03*
D35*
X1424971Y961898D02*
D03*
X1396969D02*
D03*
X791621Y352171D02*
D03*
X763621D02*
D03*
X1321532Y422402D02*
D03*
X1349532D02*
D03*
D36*
X1095131Y796544D02*
D03*
X1112129D02*
D03*
X1094877Y816864D02*
D03*
X1111875D02*
D03*
D37*
X901700Y554111D02*
D03*
Y571109D02*
D03*
X901954Y594243D02*
D03*
Y611241D02*
D03*
X902208Y634121D02*
D03*
Y651119D02*
D03*
X901954Y672983D02*
D03*
Y689981D02*
D03*
X901700Y711718D02*
D03*
Y728716D02*
D03*
Y750453D02*
D03*
Y767451D02*
D03*
Y789696D02*
D03*
Y806694D02*
D03*
X902208Y829574D02*
D03*
Y846572D02*
D03*
Y1044712D02*
D03*
Y1061710D02*
D03*
Y869960D02*
D03*
Y886958D02*
D03*
X902716Y911362D02*
D03*
Y928360D02*
D03*
Y952002D02*
D03*
Y969000D02*
D03*
Y995309D02*
D03*
Y1012307D02*
D03*
D38*
X1274404Y454406D02*
D03*
X1253404D02*
D03*
D42*
X254000Y254000D02*
X1703837D01*
X1704088Y254251D01*
Y1113539D01*
X1704340Y1113790D01*
X254000D02*
X1704340D01*
X254000Y254000D02*
Y1113790D01*
M02*
