G04 Layer_Color=32896*
%FSLAX44Y44*%
%MOMM*%
G71*
G01*
G75*
%ADD42C,0.2540*%
%ADD91C,0.0864*%
%ADD93C,0.0553*%
%ADD98C,0.0691*%
D42*
X970788Y533146D02*
Y556006D01*
X953008D02*
X970788D01*
X953008Y533146D02*
Y556006D01*
Y533146D02*
X970788D01*
X926338Y578612D02*
Y601472D01*
Y578612D02*
X944118D01*
Y601472D01*
X926338D02*
X944118D01*
X1232662Y783082D02*
Y805942D01*
Y783082D02*
X1250442D01*
Y805942D01*
X1232662D02*
X1250442D01*
X1097788Y936244D02*
Y959104D01*
X1080008D02*
X1097788D01*
X1080008Y936244D02*
Y959104D01*
Y936244D02*
X1097788D01*
X952754Y611632D02*
Y634492D01*
Y611632D02*
X970534D01*
Y634492D01*
X952754D02*
X970534D01*
X925195Y659257D02*
Y682117D01*
Y659257D02*
X942975D01*
Y682117D01*
X925195D02*
X942975D01*
X952119Y690880D02*
Y713740D01*
Y690880D02*
X969899D01*
Y713740D01*
X952119D02*
X969899D01*
X925449Y719582D02*
Y742442D01*
Y719582D02*
X943229D01*
Y742442D01*
X925449D02*
X943229D01*
X944626Y1027811D02*
Y1050671D01*
Y1027811D02*
X962406D01*
Y1050671D01*
X944626D02*
X962406D01*
X948055Y761492D02*
Y784352D01*
Y761492D02*
X965835D01*
Y784352D01*
X948055D02*
X965835D01*
X924179Y809752D02*
Y832612D01*
Y809752D02*
X941959D01*
Y832612D01*
X924179D02*
X941959D01*
X948563Y854456D02*
Y877316D01*
Y854456D02*
X966343D01*
Y877316D01*
X948563D02*
X966343D01*
X924433Y895350D02*
Y918210D01*
Y895350D02*
X942213D01*
Y918210D01*
X924433D02*
X942213D01*
X945388Y940816D02*
Y963676D01*
Y940816D02*
X963168D01*
Y963676D01*
X945388D02*
X963168D01*
X921512Y980059D02*
Y1002919D01*
Y980059D02*
X939292D01*
Y1002919D01*
X921512D02*
X939292D01*
X254000Y254000D02*
X1703837D01*
X1704088Y254251D01*
Y1113539D01*
X1704340Y1113790D01*
X254000D02*
X1704340D01*
X254000Y254000D02*
Y1113790D01*
D91*
X1112520Y961390D02*
X1101729D01*
Y955994D01*
X1103527Y954196D01*
X1107124D01*
X1108923Y955994D01*
Y961390D01*
Y957793D02*
X1112520Y954196D01*
X1101729Y943404D02*
X1103527Y947001D01*
X1107124Y950599D01*
X1110721D01*
X1112520Y948800D01*
Y945203D01*
X1110721Y943404D01*
X1108923D01*
X1107124Y945203D01*
Y950599D01*
X1103527Y939807D02*
X1101729Y938008D01*
Y934411D01*
X1103527Y932613D01*
X1105326D01*
X1107124Y934411D01*
Y936210D01*
Y934411D01*
X1108923Y932613D01*
X1110721D01*
X1112520Y934411D01*
Y938008D01*
X1110721Y939807D01*
D93*
X941070Y1047750D02*
X934163D01*
Y1044297D01*
X935314Y1043146D01*
X937617D01*
X938768Y1044297D01*
Y1047750D01*
Y1045448D02*
X941070Y1043146D01*
Y1037390D02*
X934163D01*
X937617Y1040843D01*
Y1036239D01*
X935314Y1033937D02*
X934163Y1032786D01*
Y1030484D01*
X935314Y1029333D01*
X936466D01*
X937617Y1030484D01*
X938768Y1029333D01*
X939919D01*
X941070Y1030484D01*
Y1032786D01*
X939919Y1033937D01*
X938768D01*
X937617Y1032786D01*
X936466Y1033937D01*
X935314D01*
X937617Y1032786D02*
Y1030484D01*
X1259840Y802640D02*
X1252933D01*
Y799187D01*
X1254084Y798036D01*
X1256387D01*
X1257538Y799187D01*
Y802640D01*
Y800338D02*
X1259840Y798036D01*
X1252933Y791129D02*
X1254084Y793431D01*
X1256387Y795733D01*
X1258689D01*
X1259840Y794582D01*
Y792280D01*
X1258689Y791129D01*
X1257538D01*
X1256387Y792280D01*
Y795733D01*
X1252933Y784222D02*
X1254084Y786525D01*
X1256387Y788827D01*
X1258689D01*
X1259840Y787676D01*
Y785374D01*
X1258689Y784222D01*
X1257538D01*
X1256387Y785374D01*
Y788827D01*
X955040Y990600D02*
Y997507D01*
X951587D01*
X950436Y996356D01*
Y994053D01*
X951587Y992902D01*
X955040D01*
X952738D02*
X950436Y990600D01*
X948133Y996356D02*
X946982Y997507D01*
X944680D01*
X943529Y996356D01*
Y995204D01*
X944680Y994053D01*
X945831D01*
X944680D01*
X943529Y992902D01*
Y991751D01*
X944680Y990600D01*
X946982D01*
X948133Y991751D01*
X974090Y957580D02*
X967183D01*
Y954127D01*
X968335Y952976D01*
X970637D01*
X971788Y954127D01*
Y957580D01*
Y955278D02*
X974090Y952976D01*
Y947220D02*
X967183D01*
X970637Y950673D01*
Y946069D01*
X922020Y914400D02*
X915113D01*
Y910947D01*
X916264Y909796D01*
X918567D01*
X919718Y910947D01*
Y914400D01*
Y912098D02*
X922020Y909796D01*
X915113Y902889D02*
Y907493D01*
X918567D01*
X917416Y905191D01*
Y904040D01*
X918567Y902889D01*
X920869D01*
X922020Y904040D01*
Y906342D01*
X920869Y907493D01*
X975360Y876300D02*
X968453D01*
Y872847D01*
X969604Y871696D01*
X971907D01*
X973058Y872847D01*
Y876300D01*
Y873998D02*
X975360Y871696D01*
Y864789D02*
Y869393D01*
X970756Y864789D01*
X969604D01*
X968453Y865940D01*
Y868242D01*
X969604Y869393D01*
X974209Y862487D02*
X975360Y861336D01*
Y859034D01*
X974209Y857883D01*
X969604D01*
X968453Y859034D01*
Y861336D01*
X969604Y862487D01*
X970756D01*
X971907Y861336D01*
Y857883D01*
X920750Y829310D02*
X913843D01*
Y825857D01*
X914995Y824706D01*
X917297D01*
X918448Y825857D01*
Y829310D01*
Y827008D02*
X920750Y824706D01*
X914995Y822403D02*
X913843Y821252D01*
Y818950D01*
X914995Y817799D01*
X916146D01*
X917297Y818950D01*
Y820101D01*
Y818950D01*
X918448Y817799D01*
X919599D01*
X920750Y818950D01*
Y821252D01*
X919599Y822403D01*
X914995Y815497D02*
X913843Y814346D01*
Y812044D01*
X914995Y810892D01*
X919599D01*
X920750Y812044D01*
Y814346D01*
X919599Y815497D01*
X914995D01*
X975360Y779780D02*
X968453D01*
Y776327D01*
X969604Y775176D01*
X971907D01*
X973058Y776327D01*
Y779780D01*
Y777478D02*
X975360Y775176D01*
X969604Y772873D02*
X968453Y771722D01*
Y769420D01*
X969604Y768269D01*
X970756D01*
X971907Y769420D01*
Y770571D01*
Y769420D01*
X973058Y768269D01*
X974209D01*
X975360Y769420D01*
Y771722D01*
X974209Y772873D01*
X975360Y765967D02*
Y763665D01*
Y764816D01*
X968453D01*
X969604Y765967D01*
X922020Y740410D02*
X915113D01*
Y736957D01*
X916264Y735806D01*
X918567D01*
X919718Y736957D01*
Y740410D01*
Y738108D02*
X922020Y735806D01*
Y730050D02*
X915113D01*
X918567Y733503D01*
Y728899D01*
X920869Y726597D02*
X922020Y725446D01*
Y723144D01*
X920869Y721992D01*
X916264D01*
X915113Y723144D01*
Y725446D01*
X916264Y726597D01*
X917416D01*
X918567Y725446D01*
Y721992D01*
X980440Y720090D02*
X973533D01*
Y716637D01*
X974685Y715486D01*
X976987D01*
X978138Y716637D01*
Y720090D01*
Y717788D02*
X980440Y715486D01*
X973533Y708579D02*
Y713183D01*
X976987D01*
X975836Y710881D01*
Y709730D01*
X976987Y708579D01*
X979289D01*
X980440Y709730D01*
Y712032D01*
X979289Y713183D01*
X974685Y706277D02*
X973533Y705126D01*
Y702824D01*
X974685Y701673D01*
X979289D01*
X980440Y702824D01*
Y705126D01*
X979289Y706277D01*
X974685D01*
X952500Y678180D02*
X945593D01*
Y674727D01*
X946745Y673576D01*
X949047D01*
X950198Y674727D01*
Y678180D01*
Y675878D02*
X952500Y673576D01*
X945593Y666669D02*
Y671273D01*
X949047D01*
X947896Y668971D01*
Y667820D01*
X949047Y666669D01*
X951349D01*
X952500Y667820D01*
Y670122D01*
X951349Y671273D01*
X952500Y664367D02*
Y662065D01*
Y663216D01*
X945593D01*
X946745Y664367D01*
X980440Y631190D02*
X973533D01*
Y627737D01*
X974685Y626586D01*
X976987D01*
X978138Y627737D01*
Y631190D01*
Y628888D02*
X980440Y626586D01*
X973533Y619679D02*
Y624283D01*
X976987D01*
X975836Y621981D01*
Y620830D01*
X976987Y619679D01*
X979289D01*
X980440Y620830D01*
Y623132D01*
X979289Y624283D01*
X980440Y612772D02*
Y617377D01*
X975836Y612772D01*
X974685D01*
X973533Y613924D01*
Y616226D01*
X974685Y617377D01*
X922020Y599440D02*
X915113D01*
Y595987D01*
X916264Y594836D01*
X918567D01*
X919718Y595987D01*
Y599440D01*
Y597138D02*
X922020Y594836D01*
X916264Y592533D02*
X915113Y591382D01*
Y589080D01*
X916264Y587929D01*
X917416D01*
X918567Y589080D01*
X919718Y587929D01*
X920869D01*
X922020Y589080D01*
Y591382D01*
X920869Y592533D01*
X919718D01*
X918567Y591382D01*
X917416Y592533D01*
X916264D01*
X918567Y591382D02*
Y589080D01*
X922020Y582174D02*
X915113D01*
X918567Y585627D01*
Y581022D01*
X981710Y557530D02*
X974803D01*
Y554077D01*
X975955Y552926D01*
X978257D01*
X979408Y554077D01*
Y557530D01*
Y555228D02*
X981710Y552926D01*
X975955Y550623D02*
X974803Y549472D01*
Y547170D01*
X975955Y546019D01*
X977106D01*
X978257Y547170D01*
X979408Y546019D01*
X980559D01*
X981710Y547170D01*
Y549472D01*
X980559Y550623D01*
X979408D01*
X978257Y549472D01*
X977106Y550623D01*
X975955D01*
X978257Y549472D02*
Y547170D01*
X974803Y543717D02*
Y539113D01*
X975955D01*
X980559Y543717D01*
X981710D01*
D98*
X1587926Y598764D02*
X1586487Y600203D01*
Y603081D01*
X1587926Y604520D01*
X1593681D01*
X1595120Y603081D01*
Y600203D01*
X1593681Y598764D01*
X1595120Y590131D02*
Y595887D01*
X1589364Y590131D01*
X1587926D01*
X1586487Y591570D01*
Y594448D01*
X1587926Y595887D01*
Y587254D02*
X1586487Y585815D01*
Y582937D01*
X1587926Y581498D01*
X1593681D01*
X1595120Y582937D01*
Y585815D01*
X1593681Y587254D01*
X1587926D01*
X1581322Y798662D02*
X1579883Y800101D01*
Y802979D01*
X1581322Y804418D01*
X1587077D01*
X1588516Y802979D01*
Y800101D01*
X1587077Y798662D01*
X1588516Y790029D02*
Y795785D01*
X1582760Y790029D01*
X1581322D01*
X1579883Y791468D01*
Y794346D01*
X1581322Y795785D01*
X1588516Y787152D02*
Y784274D01*
Y785713D01*
X1579883D01*
X1581322Y787152D01*
M02*
