G04 Layer_Color=8388736*
%FSLAX44Y44*%
%MOMM*%
G71*
G01*
G75*
%ADD42C,0.2540*%
%ADD78C,1.7272*%
%ADD103R,1.1001X0.5001*%
%ADD104R,2.0033X3.4031*%
%ADD105R,1.6033X1.6033*%
%ADD106R,1.8032X1.0033*%
%ADD107R,3.2032X2.3033*%
%ADD108R,2.2032X1.1031*%
%ADD109R,2.1082X1.2192*%
%ADD110R,1.7033X1.2032*%
%ADD111R,1.4232X0.8232*%
%ADD112R,1.4531X0.5032*%
%ADD113R,1.3033X1.2032*%
%ADD114R,1.2032X1.3033*%
%ADD115R,3.4031X2.0033*%
%ADD116R,2.4384X1.4224*%
%ADD117R,2.4031X3.8031*%
%ADD118R,1.6033X1.2032*%
%ADD119R,0.8636X2.2352*%
%ADD120R,1.4031X1.4031*%
%ADD121R,4.1031X2.2032*%
%ADD122R,1.6033X1.6033*%
%ADD123R,1.4232X1.1133*%
%ADD124R,4.0033X3.0033*%
%ADD125R,3.0033X4.0033*%
%ADD126R,2.0033X1.8032*%
%ADD127R,3.0033X2.6033*%
%ADD128R,1.8032X2.0033*%
%ADD129R,1.3033X1.2032*%
%ADD130R,1.2032X1.3033*%
%ADD131R,1.4031X1.4031*%
%ADD132C,4.2032*%
%ADD133R,1.7272X1.7272*%
%ADD134P,2.4826X8X22.5*%
%ADD135R,1.5748X1.5748*%
%ADD136C,1.5748*%
%ADD137C,2.6416*%
%ADD138C,3.4544*%
%ADD139C,8.2032*%
%ADD140C,1.2095*%
%ADD141C,1.4732*%
D42*
X254000Y254000D02*
X1703837D01*
X1704088Y254251D01*
Y1113539D01*
X1704340Y1113790D01*
X254000D02*
X1704340D01*
X254000Y254000D02*
Y1113790D01*
D78*
X422910Y392060D02*
D03*
Y414060D02*
D03*
Y436060D02*
D03*
Y458060D02*
D03*
Y480060D02*
D03*
Y502060D02*
D03*
Y524060D02*
D03*
Y546060D02*
D03*
Y568060D02*
D03*
Y590060D02*
D03*
Y612060D02*
D03*
Y634060D02*
D03*
X452910D02*
D03*
Y612060D02*
D03*
Y590060D02*
D03*
Y568060D02*
D03*
Y546060D02*
D03*
Y524060D02*
D03*
Y502060D02*
D03*
Y480060D02*
D03*
Y458060D02*
D03*
Y436060D02*
D03*
Y414060D02*
D03*
X421760Y791530D02*
D03*
Y813530D02*
D03*
Y835530D02*
D03*
Y857530D02*
D03*
Y879530D02*
D03*
Y901530D02*
D03*
Y923530D02*
D03*
Y945530D02*
D03*
X451760D02*
D03*
Y923530D02*
D03*
Y901530D02*
D03*
Y879530D02*
D03*
Y857530D02*
D03*
Y835530D02*
D03*
Y813530D02*
D03*
D103*
X749489Y370188D02*
D03*
Y376688D02*
D03*
Y383188D02*
D03*
Y389688D02*
D03*
Y396188D02*
D03*
Y402688D02*
D03*
Y409188D02*
D03*
Y415687D02*
D03*
X804991D02*
D03*
Y409188D02*
D03*
Y402688D02*
D03*
Y396188D02*
D03*
Y389688D02*
D03*
Y383188D02*
D03*
Y376688D02*
D03*
Y370188D02*
D03*
D104*
X713679Y753110D02*
D03*
X769681D02*
D03*
X713679Y808482D02*
D03*
X769681D02*
D03*
X713171Y869442D02*
D03*
X769173D02*
D03*
X713171Y928116D02*
D03*
X769173D02*
D03*
X713171Y988060D02*
D03*
X769173D02*
D03*
X713679Y1051560D02*
D03*
X769681D02*
D03*
X599318Y1033780D02*
D03*
X655320D02*
D03*
X599379Y974090D02*
D03*
X655381D02*
D03*
X599379Y914400D02*
D03*
X655381D02*
D03*
X599379Y849630D02*
D03*
X655381D02*
D03*
X599379Y784860D02*
D03*
X655381D02*
D03*
X599379Y722630D02*
D03*
X655381D02*
D03*
D105*
X1063244Y395173D02*
D03*
Y357175D02*
D03*
X952500Y335483D02*
D03*
Y297485D02*
D03*
D106*
X1499283Y385110D02*
D03*
Y397609D02*
D03*
Y410111D02*
D03*
Y422610D02*
D03*
D107*
X1528285Y359611D02*
D03*
Y448109D02*
D03*
D108*
X1199253Y439189D02*
D03*
Y414289D02*
D03*
Y389390D02*
D03*
Y364490D02*
D03*
X1117854Y439189D02*
D03*
Y414289D02*
D03*
Y389390D02*
D03*
Y364490D02*
D03*
D109*
X1448816Y936498D02*
D03*
Y961898D02*
D03*
Y987298D02*
D03*
X1532636D02*
D03*
Y961898D02*
D03*
Y936498D02*
D03*
D110*
X1315720Y977900D02*
D03*
X1361440D02*
D03*
Y947420D02*
D03*
X1315720D02*
D03*
D111*
X1331930Y388214D02*
D03*
Y378714D02*
D03*
Y369214D02*
D03*
X1357930D02*
D03*
Y388214D02*
D03*
D112*
X1121491Y989035D02*
D03*
Y984037D02*
D03*
X1053493Y884037D02*
D03*
Y889036D02*
D03*
X1121491Y999035D02*
D03*
Y994037D02*
D03*
Y969035D02*
D03*
Y964037D02*
D03*
Y979035D02*
D03*
Y974037D02*
D03*
Y949035D02*
D03*
Y944037D02*
D03*
Y959035D02*
D03*
Y954037D02*
D03*
Y929035D02*
D03*
Y924037D02*
D03*
Y939035D02*
D03*
Y934037D02*
D03*
Y909035D02*
D03*
Y904037D02*
D03*
Y919035D02*
D03*
Y914037D02*
D03*
Y889036D02*
D03*
Y884037D02*
D03*
Y899035D02*
D03*
Y894037D02*
D03*
X1053493D02*
D03*
Y899035D02*
D03*
Y904037D02*
D03*
Y909035D02*
D03*
Y914037D02*
D03*
Y919035D02*
D03*
Y924037D02*
D03*
Y929035D02*
D03*
Y934037D02*
D03*
Y939035D02*
D03*
Y944037D02*
D03*
Y949035D02*
D03*
Y954037D02*
D03*
Y959035D02*
D03*
Y964037D02*
D03*
Y969035D02*
D03*
Y974037D02*
D03*
Y979035D02*
D03*
Y984037D02*
D03*
Y989035D02*
D03*
Y994037D02*
D03*
Y999035D02*
D03*
D113*
X1222375Y886323D02*
D03*
Y869325D02*
D03*
X1238504Y971159D02*
D03*
Y954161D02*
D03*
X1042416Y1011819D02*
D03*
Y1028817D02*
D03*
X1073150Y1012327D02*
D03*
Y1029325D02*
D03*
X1104900Y1011565D02*
D03*
Y1028563D02*
D03*
X1137666Y1015375D02*
D03*
Y1032373D02*
D03*
X1042416Y1041791D02*
D03*
Y1058789D02*
D03*
X1073150Y1042299D02*
D03*
Y1059297D02*
D03*
X1137666Y1045601D02*
D03*
Y1062599D02*
D03*
X1104900Y1041537D02*
D03*
Y1058535D02*
D03*
X769620Y591429D02*
D03*
Y574431D02*
D03*
X793750Y591429D02*
D03*
Y574431D02*
D03*
X1162050Y973973D02*
D03*
Y990971D02*
D03*
X1183132D02*
D03*
Y973973D02*
D03*
X837692Y346847D02*
D03*
Y363845D02*
D03*
X1152398Y851037D02*
D03*
Y868035D02*
D03*
X1175258Y851037D02*
D03*
Y868035D02*
D03*
X1292606Y396357D02*
D03*
Y379359D02*
D03*
X1254506Y421503D02*
D03*
Y404505D02*
D03*
X1253744Y374513D02*
D03*
Y357515D02*
D03*
D114*
X546471Y667512D02*
D03*
X529473D02*
D03*
X546471Y635762D02*
D03*
X529473D02*
D03*
X546979Y603250D02*
D03*
X529981D02*
D03*
X546979Y571500D02*
D03*
X529981D02*
D03*
X546588Y476250D02*
D03*
X529590D02*
D03*
X546588Y441960D02*
D03*
X529590D02*
D03*
X546979Y407670D02*
D03*
X529981D02*
D03*
X546979Y373380D02*
D03*
X529981D02*
D03*
X881751Y385572D02*
D03*
X864753D02*
D03*
X702300Y382905D02*
D03*
X685302D02*
D03*
X881497Y410083D02*
D03*
X864499D02*
D03*
X702046Y404241D02*
D03*
X685048D02*
D03*
X782945Y445262D02*
D03*
X765947D02*
D03*
X850001Y609219D02*
D03*
X833003D02*
D03*
X850382Y647700D02*
D03*
X833384D02*
D03*
X850128Y686562D02*
D03*
X833130D02*
D03*
X850382Y725678D02*
D03*
X833384D02*
D03*
X850382Y764159D02*
D03*
X833384D02*
D03*
X849747Y803148D02*
D03*
X832749D02*
D03*
X850001Y842772D02*
D03*
X833003D02*
D03*
X850128Y881634D02*
D03*
X833130D02*
D03*
X850255Y920115D02*
D03*
X833257D02*
D03*
X850509Y959993D02*
D03*
X833511D02*
D03*
X850509Y999109D02*
D03*
X833511D02*
D03*
X850255Y1037844D02*
D03*
X833257D02*
D03*
X882767Y609219D02*
D03*
X865769D02*
D03*
X882767Y647700D02*
D03*
X865769D02*
D03*
X882767Y686562D02*
D03*
X865769D02*
D03*
X883021Y725678D02*
D03*
X866023D02*
D03*
X882640Y764159D02*
D03*
X865642D02*
D03*
X882005Y803148D02*
D03*
X865007D02*
D03*
X882259Y842772D02*
D03*
X865261D02*
D03*
X882386Y881634D02*
D03*
X865388D02*
D03*
X882513Y919480D02*
D03*
X865515D02*
D03*
X882513Y959993D02*
D03*
X865515D02*
D03*
X882513Y999109D02*
D03*
X865515D02*
D03*
X1292743Y455676D02*
D03*
X1309741D02*
D03*
X882259Y1037844D02*
D03*
X865261D02*
D03*
D115*
X952754Y374843D02*
D03*
Y430845D02*
D03*
D116*
X1210056Y816610D02*
D03*
Y793496D02*
D03*
Y770382D02*
D03*
D117*
X1272035Y793496D02*
D03*
D118*
X814276Y614197D02*
D03*
Y633197D02*
D03*
X792274Y623697D02*
D03*
X814022Y652932D02*
D03*
Y671932D02*
D03*
X792020Y662432D02*
D03*
X814657Y691286D02*
D03*
Y710286D02*
D03*
X792655Y700786D02*
D03*
X814911Y730148D02*
D03*
Y749148D02*
D03*
X792909Y739648D02*
D03*
X814911Y769264D02*
D03*
Y788264D02*
D03*
X792909Y778764D02*
D03*
X814911Y808507D02*
D03*
Y827507D02*
D03*
X792909Y818007D02*
D03*
X815546Y847623D02*
D03*
Y866623D02*
D03*
X793544Y857123D02*
D03*
X816181Y886485D02*
D03*
Y905485D02*
D03*
X794179Y895985D02*
D03*
X816181Y925347D02*
D03*
Y944347D02*
D03*
X794179Y934847D02*
D03*
X816181Y965098D02*
D03*
Y984098D02*
D03*
X794179Y974598D02*
D03*
X816181Y1003960D02*
D03*
Y1022960D02*
D03*
X794179Y1013460D02*
D03*
X816181Y1042187D02*
D03*
Y1061187D02*
D03*
X794179Y1051687D02*
D03*
D119*
X694563Y490220D02*
D03*
Y551688D02*
D03*
X707263Y490220D02*
D03*
X719963D02*
D03*
X707263Y551688D02*
D03*
X719963D02*
D03*
X732663Y490220D02*
D03*
Y551688D02*
D03*
X745363Y490220D02*
D03*
Y551688D02*
D03*
X758063Y490220D02*
D03*
X770763D02*
D03*
X758063Y551688D02*
D03*
X770763D02*
D03*
X783463Y490220D02*
D03*
Y551688D02*
D03*
D120*
X1202436Y887181D02*
D03*
Y866181D02*
D03*
D121*
X1465118Y419608D02*
D03*
Y462107D02*
D03*
D122*
X1077163Y437642D02*
D03*
X1039165D02*
D03*
D123*
X962279Y528071D02*
D03*
Y560573D02*
D03*
X935482Y573283D02*
D03*
Y605785D02*
D03*
X961390Y607065D02*
D03*
Y639567D02*
D03*
X933450Y654436D02*
D03*
Y686938D02*
D03*
X960374Y686059D02*
D03*
Y718561D02*
D03*
X934339Y714761D02*
D03*
Y747263D02*
D03*
X956945Y756544D02*
D03*
Y789046D02*
D03*
X932053Y806074D02*
D03*
Y838576D02*
D03*
X956818Y849635D02*
D03*
Y882137D02*
D03*
X932688Y891164D02*
D03*
Y923666D02*
D03*
X954278Y936376D02*
D03*
Y968878D02*
D03*
X930402Y976508D02*
D03*
Y1009010D02*
D03*
X953516Y1023625D02*
D03*
Y1056127D02*
D03*
D124*
X1410208Y403436D02*
D03*
Y477436D02*
D03*
D125*
X1267798Y295910D02*
D03*
X1341798D02*
D03*
D126*
X1384808Y296896D02*
D03*
Y324897D02*
D03*
X1262380Y844012D02*
D03*
Y872012D02*
D03*
X923036Y335056D02*
D03*
Y307055D02*
D03*
X1273810Y1042954D02*
D03*
Y1014954D02*
D03*
X1241806Y1043463D02*
D03*
Y1015462D02*
D03*
X663448Y521813D02*
D03*
Y549813D02*
D03*
X1002538Y334548D02*
D03*
Y306548D02*
D03*
D127*
X1435100Y285237D02*
D03*
Y348239D02*
D03*
X1001522Y367787D02*
D03*
Y430789D02*
D03*
D128*
X1424971Y961898D02*
D03*
X1396969D02*
D03*
X791621Y352171D02*
D03*
X763621D02*
D03*
X1321532Y422402D02*
D03*
X1349532D02*
D03*
D129*
X1095131Y796544D02*
D03*
X1112129D02*
D03*
X1094877Y816864D02*
D03*
X1111875D02*
D03*
D130*
X901700Y554111D02*
D03*
Y571109D02*
D03*
X901954Y594243D02*
D03*
Y611241D02*
D03*
X902208Y634121D02*
D03*
Y651119D02*
D03*
X901954Y672983D02*
D03*
Y689981D02*
D03*
X901700Y711718D02*
D03*
Y728716D02*
D03*
Y750453D02*
D03*
Y767451D02*
D03*
Y789696D02*
D03*
Y806694D02*
D03*
X902208Y829574D02*
D03*
Y846572D02*
D03*
Y1044712D02*
D03*
Y1061710D02*
D03*
Y869960D02*
D03*
Y886958D02*
D03*
X902716Y911362D02*
D03*
Y928360D02*
D03*
Y952002D02*
D03*
Y969000D02*
D03*
Y995309D02*
D03*
Y1012307D02*
D03*
D131*
X1274404Y454406D02*
D03*
X1253404D02*
D03*
D132*
X366910Y399060D02*
D03*
Y627060D02*
D03*
X365760Y938530D02*
D03*
Y798530D02*
D03*
D133*
X452910Y392060D02*
D03*
X451760Y791530D02*
D03*
D134*
X735584Y339852D02*
D03*
X1107186Y283718D02*
D03*
X679450Y323342D02*
D03*
X648970Y398780D02*
D03*
X882904Y437896D02*
D03*
X1464564Y544068D02*
D03*
X1463802Y503428D02*
D03*
X1447546Y907542D02*
D03*
X1448562Y1021334D02*
D03*
X1035050Y396748D02*
D03*
D135*
X1532890Y544830D02*
D03*
Y748030D02*
D03*
D136*
X1507490Y557530D02*
D03*
X1532890Y570230D02*
D03*
X1507490Y582930D02*
D03*
X1532890Y595630D02*
D03*
X1507490Y608330D02*
D03*
X1532890Y621030D02*
D03*
X1507490Y633730D02*
D03*
Y760730D02*
D03*
X1532890Y773430D02*
D03*
X1507490Y786130D02*
D03*
X1532890Y798830D02*
D03*
X1507490Y811530D02*
D03*
X1532890Y824230D02*
D03*
X1507490Y836930D02*
D03*
D137*
X1648460Y666750D02*
D03*
Y511810D02*
D03*
Y869950D02*
D03*
Y715010D02*
D03*
D138*
X1604010Y647700D02*
D03*
Y530860D02*
D03*
Y850900D02*
D03*
Y734060D02*
D03*
D139*
X302260Y1065530D02*
D03*
X1659890Y1069340D02*
D03*
X1658620Y299720D02*
D03*
X303530Y303530D02*
D03*
D140*
X1221740Y863600D02*
D03*
X1321308Y408178D02*
D03*
X1275080Y388620D02*
D03*
X1481836Y378968D02*
D03*
X945134Y980694D02*
D03*
X929894Y959104D02*
D03*
X937768Y937768D02*
D03*
X950976Y923544D02*
D03*
X956564Y893318D02*
D03*
X952246Y832104D02*
D03*
X951484Y805688D02*
D03*
X940308Y763016D02*
D03*
X946912Y723138D02*
D03*
X979678Y692404D02*
D03*
X933450Y644398D02*
D03*
X988568Y633984D02*
D03*
X950722Y597916D02*
D03*
X1009904Y1059180D02*
D03*
X1006348Y460756D02*
D03*
X777240Y709422D02*
D03*
X792226Y743712D02*
D03*
X752856Y793750D02*
D03*
X762254Y895096D02*
D03*
X792988Y847344D02*
D03*
X792480Y821944D02*
D03*
X753110Y862838D02*
D03*
X789432Y779018D02*
D03*
X1089152Y987044D02*
D03*
X1088898Y1019810D02*
D03*
X663448Y371856D02*
D03*
X756666Y614172D02*
D03*
X812800Y753364D02*
D03*
X767334Y726948D02*
D03*
X728726Y779018D02*
D03*
X803148Y678688D02*
D03*
X1210056Y832104D02*
D03*
X1281938Y852678D02*
D03*
X1042416Y1011936D02*
D03*
X1073150D02*
D03*
X1104900Y1011428D02*
D03*
X1103884Y913384D02*
D03*
X1071499Y816610D02*
D03*
X1071245Y796671D02*
D03*
X812927Y352298D02*
D03*
X902208Y554990D02*
D03*
X901700Y594360D02*
D03*
X902208Y634492D02*
D03*
X901954Y673100D02*
D03*
X901700Y711708D02*
D03*
Y750570D02*
D03*
Y789686D02*
D03*
X902208Y829310D02*
D03*
X916432Y877316D02*
D03*
X902716Y911352D02*
D03*
X903224Y951992D02*
D03*
X902970Y995426D02*
D03*
X902208Y1044702D02*
D03*
X1137666Y1014222D02*
D03*
X1281684Y833374D02*
D03*
X1166114Y1006348D02*
D03*
X1022096Y335026D02*
D03*
X975106Y334518D02*
D03*
X939546Y335788D02*
D03*
X771906Y465836D02*
D03*
X722122Y370586D02*
D03*
X976376Y528574D02*
D03*
X864616Y327660D02*
D03*
X1388110Y960882D02*
D03*
X1242060Y1054862D02*
D03*
X1273810Y1054354D02*
D03*
X711200Y343662D02*
D03*
X1075436Y956310D02*
D03*
X1243584Y765048D02*
D03*
X1163320Y1050290D02*
D03*
X1176020Y935990D02*
D03*
X1227328Y915416D02*
D03*
X1063244Y486918D02*
D03*
X1040638Y358394D02*
D03*
X941832Y561340D02*
D03*
X818642Y393192D02*
D03*
X899922Y508762D02*
D03*
X863854Y472948D02*
D03*
X828294Y549656D02*
D03*
X732536Y573024D02*
D03*
X717550Y393192D02*
D03*
X1111504Y843026D02*
D03*
X1111758Y798068D02*
D03*
X1138428Y914400D02*
D03*
X1088136Y756412D02*
D03*
X797052Y565150D02*
D03*
X934720Y536956D02*
D03*
X1103376Y774446D02*
D03*
X846074Y530606D02*
D03*
X798322Y543052D02*
D03*
X1152398Y913638D02*
D03*
X846582Y380492D02*
D03*
X788924Y458470D02*
D03*
X1075436Y939038D02*
D03*
X1253998Y819404D02*
D03*
X790956Y800100D02*
D03*
X733552Y866140D02*
D03*
X975614Y1054862D02*
D03*
X969772Y1019810D02*
D03*
X946404Y1006856D02*
D03*
X732028Y974344D02*
D03*
X794004Y877570D02*
D03*
X745490Y941832D02*
D03*
X790448Y912876D02*
D03*
X838962Y393954D02*
D03*
X862838Y512572D02*
D03*
X1167130Y904494D02*
D03*
X1121156Y773176D02*
D03*
X1214882Y1006856D02*
D03*
X1215136Y929132D02*
D03*
X1195324Y935228D02*
D03*
X1200150Y989584D02*
D03*
X720090Y457200D02*
D03*
X762000Y426720D02*
D03*
X736600Y435610D02*
D03*
D141*
X574040Y972820D02*
D03*
X519430Y989330D02*
D03*
X449580Y975360D02*
D03*
X496570Y1019810D02*
D03*
X482600Y1036320D02*
D03*
X775970Y839470D02*
D03*
X744220Y880110D02*
D03*
X741680Y920750D02*
D03*
X464820Y1050290D02*
D03*
X689610Y855980D02*
D03*
X685800Y828040D02*
D03*
X687070Y773430D02*
D03*
X673100Y759460D02*
D03*
X676910Y600710D02*
D03*
X575310Y722630D02*
D03*
X562610Y666750D02*
D03*
Y571500D02*
D03*
Y603250D02*
D03*
Y636270D02*
D03*
X683260Y459740D02*
D03*
X561340Y476250D02*
D03*
Y370840D02*
D03*
Y407670D02*
D03*
Y441960D02*
D03*
X662940Y505460D02*
D03*
X1564640Y535940D02*
D03*
X1595120Y812800D02*
D03*
M02*
